<svg xmlns="http://www.w3.org/2000/svg" width="1460" height="760" viewBox="0 0 1460 760"><defs><style>.a{fill:none;stroke:#000;}.b{fill:#fff;}.c{isolation:isolate;}</style></defs><g transform="translate(-4074.193 -624.462)"><ellipse cx="381" cy="380" rx="381" ry="380" transform="translate(4772.193 624.462)"/><ellipse class="a" cx="380.5" cy="379.5" rx="380.5" ry="379.5" transform="translate(4772.693 624.962)"/></g><circle cx="105" cy="105" r="105" transform="translate(0 275)"/><circle class="b" cx="105" cy="105" r="105" transform="translate(1037 275)"/><circle cx="122" cy="122" r="122" transform="translate(210 258)"/><circle cx="122" cy="122" r="122" transform="translate(454 258)"/><ellipse class="b" cx="169.5" cy="169" rx="169.5" ry="169" transform="translate(698 211)"/><g class="c" transform="translate(-4074.193 -624.462)"><path class="b" d="M4147.658,1011.462h-1.584l-3.006-5.562h-3.744v5.562h-1.313v-12.78h5.257a4.246,4.246,0,0,1,3.086,1,3.489,3.489,0,0,1,1.017,2.6,3.614,3.614,0,0,1-.728,2.286,3.455,3.455,0,0,1-2.205,1.205Zm-1.655-9.18a2.23,2.23,0,0,0-.675-1.71,2.847,2.847,0,0,0-2.008-.63h-4v4.7h4a2.874,2.874,0,0,0,2.008-.621A2.248,2.248,0,0,0,4146,1002.282Z"/><path class="b" d="M4158.963,1007.25h-7.613a3.594,3.594,0,0,0,.97,2.358,3.031,3.031,0,0,0,2.287.918,3.1,3.1,0,0,0,1.8-.531,2.77,2.77,0,0,0,1.08-1.4h1.332a4.256,4.256,0,0,1-4.229,3.078,4.154,4.154,0,0,1-3.3-1.395,5.016,5.016,0,0,1-1.216-3.411,4.911,4.911,0,0,1,1.252-3.384,4.146,4.146,0,0,1,3.248-1.4,4.1,4.1,0,0,1,3.205,1.341,4.811,4.811,0,0,1,1.205,3.339Zm-4.393-4.014a2.978,2.978,0,0,0-2.159.837,3.472,3.472,0,0,0-1.026,2.133h6.318a3.322,3.322,0,0,0-.963-2.16A2.99,2.99,0,0,0,4154.57,1003.236Z"/><path class="b" d="M4165.263,1011.678a3.852,3.852,0,0,1-2.763-.873,3.254,3.254,0,0,1-1-2.205h1.3a2,2,0,0,0,.693,1.44,2.68,2.68,0,0,0,1.773.522,3.177,3.177,0,0,0,1.772-.424,1.3,1.3,0,0,0,.64-1.131,1.17,1.17,0,0,0-.585-1.075,3.818,3.818,0,0,0-1.411-.479q-.828-.128-1.665-.3a2.777,2.777,0,0,1-1.424-.749,2.168,2.168,0,0,1-.585-1.62,2.437,2.437,0,0,1,.918-1.908,3.673,3.673,0,0,1,2.483-.792,3.15,3.15,0,0,1,3.492,2.9h-1.277a1.95,1.95,0,0,0-.648-1.286,2.341,2.341,0,0,0-1.6-.495,2.566,2.566,0,0,0-1.575.418,1.286,1.286,0,0,0-.55,1.064,1.081,1.081,0,0,0,.434.907,2.694,2.694,0,0,0,1.046.474l1.348.315,1.375.32a1.743,1.743,0,0,1,1.054.747,2.635,2.635,0,0,1,.413,1.533,2.409,2.409,0,0,1-.944,1.908A4.112,4.112,0,0,1,4165.263,1011.678Z"/><path class="b" d="M4180.508,1007.25H4172.9a3.6,3.6,0,0,0,.971,2.358,3.029,3.029,0,0,0,2.286.918,3.1,3.1,0,0,0,1.8-.531,2.778,2.778,0,0,0,1.08-1.4h1.332a4.258,4.258,0,0,1-4.229,3.078,4.153,4.153,0,0,1-3.3-1.395,5.006,5.006,0,0,1-1.216-3.411,4.911,4.911,0,0,1,1.251-3.384,4.148,4.148,0,0,1,3.249-1.4,4.1,4.1,0,0,1,3.2,1.341,4.807,4.807,0,0,1,1.206,3.339Zm-4.392-4.014a2.977,2.977,0,0,0-2.159.837,3.475,3.475,0,0,0-1.027,2.133h6.318a3.315,3.315,0,0,0-.963-2.16A2.987,2.987,0,0,0,4176.116,1003.236Z"/><path class="b" d="M4192.208,1002.3v9.162h-1.224v-1.692a3.62,3.62,0,0,1-3.474,1.908,3.886,3.886,0,0,1-3.168-1.395,5.583,5.583,0,0,1,0-6.8,3.875,3.875,0,0,1,3.168-1.4,3.62,3.62,0,0,1,3.474,1.908V1002.3Zm-6.831,1.989a3.89,3.89,0,0,0-.891,2.6,3.851,3.851,0,0,0,.891,2.591,2.975,2.975,0,0,0,2.385,1.045,2.9,2.9,0,0,0,2.358-1.045,4.346,4.346,0,0,0,0-5.2,2.9,2.9,0,0,0-2.358-1.044A2.966,2.966,0,0,0,4185.377,1004.289Z"/><path class="b" d="M4200.722,1002.228v1.206c-.144-.012-.294-.018-.451-.018a2.73,2.73,0,0,0-1.979.729,2.8,2.8,0,0,0-.756,2.115v5.2h-1.278V1002.3h1.224v1.422a2.912,2.912,0,0,1,1.062-1.053,3.488,3.488,0,0,1,1.872-.459Z"/><path class="b" d="M4203.646,1010.265a5.193,5.193,0,0,1,0-6.759,4.548,4.548,0,0,1,6.148-.423,4.358,4.358,0,0,1,1.4,2.475h-1.3a3.158,3.158,0,0,0-1.062-1.7,2.983,2.983,0,0,0-1.926-.62,2.941,2.941,0,0,0-2.331,1.026,4.294,4.294,0,0,0,0,5.238,2.941,2.941,0,0,0,2.331,1.026,2.978,2.978,0,0,0,1.926-.621,3.151,3.151,0,0,0,1.062-1.7h1.3a4.358,4.358,0,0,1-1.4,2.475,4.559,4.559,0,0,1-6.148-.414Z"/><path class="b" d="M4215.645,997.962v5.616a3.074,3.074,0,0,1,1.08-1.026,3.526,3.526,0,0,1,1.889-.468,3.342,3.342,0,0,1,2.566.972,3.6,3.6,0,0,1,.908,2.556v5.85h-1.277v-5.6a2.912,2.912,0,0,0-.6-1.971,2.269,2.269,0,0,0-1.809-.693,2.734,2.734,0,0,0-1.98.747,2.777,2.777,0,0,0-.773,2.1v5.418h-1.279v-13.5Z"/></g><g class="c" transform="translate(-4074.193 -624.462)"><path d="M5193.841,998.682v1.26h-4.086v11.52h-1.314v-11.52h-4.086v-1.26Z"/><path d="M5203.291,1007.25h-7.613a3.6,3.6,0,0,0,.97,2.358,3.031,3.031,0,0,0,2.288.918,3.1,3.1,0,0,0,1.8-.531,2.773,2.773,0,0,0,1.08-1.4h1.332a4.256,4.256,0,0,1-4.229,3.078,4.155,4.155,0,0,1-3.3-1.395,5.018,5.018,0,0,1-1.216-3.411,4.911,4.911,0,0,1,1.252-3.384,4.481,4.481,0,0,1,6.454-.063,4.818,4.818,0,0,1,1.205,3.339Zm-4.393-4.014a2.979,2.979,0,0,0-2.159.837,3.472,3.472,0,0,0-1.026,2.133h6.318a3.319,3.319,0,0,0-.963-2.16A2.989,2.989,0,0,0,5198.9,1003.236Z"/><path d="M5209.591,1011.678a3.853,3.853,0,0,1-2.763-.873,3.254,3.254,0,0,1-1-2.205h1.3a2,2,0,0,0,.693,1.44,2.68,2.68,0,0,0,1.773.522,3.173,3.173,0,0,0,1.772-.424,1.3,1.3,0,0,0,.64-1.131,1.168,1.168,0,0,0-.585-1.075,3.814,3.814,0,0,0-1.411-.479q-.828-.128-1.665-.3a2.781,2.781,0,0,1-1.424-.749,2.166,2.166,0,0,1-.585-1.62,2.437,2.437,0,0,1,.918-1.908,3.673,3.673,0,0,1,2.483-.792,3.152,3.152,0,0,1,3.493,2.9h-1.278a1.951,1.951,0,0,0-.648-1.286,2.337,2.337,0,0,0-1.6-.495,2.566,2.566,0,0,0-1.575.418,1.285,1.285,0,0,0-.55,1.064,1.082,1.082,0,0,0,.434.907,2.7,2.7,0,0,0,1.046.474l1.348.315,1.375.32a1.742,1.742,0,0,1,1.054.747,2.635,2.635,0,0,1,.413,1.533,2.408,2.408,0,0,1-.944,1.908A4.108,4.108,0,0,1,5209.591,1011.678Z"/><path d="M5218.285,1003.38v8.082h-1.279v-8.082h-1.745v-1.08h1.745v-2.611h1.279v2.611h1.871v1.08Z"/><path d="M5223.414,1000.032a.921.921,0,0,1-.666-.243.847.847,0,0,1-.252-.639.908.908,0,0,1,.252-.657.923.923,0,0,1,1.584.657.831.831,0,0,1-.261.639A.927.927,0,0,1,5223.414,1000.032Zm-.648,11.43V1002.3h1.279v9.162Z"/><path d="M5229.318,1002.3v1.4a3.173,3.173,0,0,1,1.08-1.116,3.441,3.441,0,0,1,1.944-.5,3.342,3.342,0,0,1,2.565.972,3.587,3.587,0,0,1,.909,2.556v5.85h-1.278v-5.6a2.912,2.912,0,0,0-.6-1.971,2.272,2.272,0,0,0-1.809-.693,2.6,2.6,0,0,0-2.754,2.808v5.454h-1.279V1002.3Z"/><path d="M5246.85,1003.974V1002.3h1.224v8.712a4.542,4.542,0,0,1-1.107,3.168,4.063,4.063,0,0,1-3.177,1.224,4.359,4.359,0,0,1-2.852-.864,3.675,3.675,0,0,1-1.325-2.052h1.315a2.363,2.363,0,0,0,1.035,1.287,3.456,3.456,0,0,0,1.863.477,2.888,2.888,0,0,0,2.178-.819,2.944,2.944,0,0,0,.792-2.133v-1.71a3.629,3.629,0,0,1-3.4,1.854,3.932,3.932,0,0,1-3.151-1.368,5.273,5.273,0,0,1,0-6.624,3.932,3.932,0,0,1,3.151-1.368A3.66,3.66,0,0,1,5246.85,1003.974Zm-.873,5.328a4.113,4.113,0,0,0,0-5.067,2.963,2.963,0,0,0-2.349-1,3,3,0,0,0-2.367,1.008,4.021,4.021,0,0,0,0,5.049,2.992,2.992,0,0,0,2.367,1.017A2.951,2.951,0,0,0,5245.977,1009.3Z"/></g><g class="c" transform="translate(-4074.193 -624.462)"><path class="b" d="M5377.324,991.08v5.382h-1.313v-12.78h4.968a4.22,4.22,0,0,1,3.114,1.017,4.043,4.043,0,0,1-.009,5.355,4.2,4.2,0,0,1-3.1,1.026Zm0-1.26h3.709a2.852,2.852,0,0,0,2.026-.639,2.375,2.375,0,0,0,.673-1.809,2.351,2.351,0,0,0-.673-1.791,2.852,2.852,0,0,0-2.026-.639h-3.709Z"/><path class="b" d="M5392.318,987.228v1.206c-.142-.012-.293-.018-.449-.018a2.733,2.733,0,0,0-1.98.729,2.8,2.8,0,0,0-.756,2.115v5.2h-1.278V987.3h1.224v1.422a2.912,2.912,0,0,1,1.062-1.053,3.49,3.49,0,0,1,1.873-.459Z"/><path class="b" d="M5398.655,996.678a4.354,4.354,0,0,1-3.375-1.413,5.093,5.093,0,0,1,0-6.768,4.76,4.76,0,0,1,6.769,0,5.092,5.092,0,0,1,0,6.768A4.372,4.372,0,0,1,5398.655,996.678Zm-3.366-4.788a3.736,3.736,0,0,0,.936,2.6,3.392,3.392,0,0,0,4.879,0,4.11,4.11,0,0,0,0-5.22,3.148,3.148,0,0,0-2.449-1.035,3.114,3.114,0,0,0-2.438,1.035A3.776,3.776,0,0,0,5395.289,991.89Z"/><path class="b" d="M5413.739,988.956v-5.994h1.279v13.5h-1.225V994.77a3.622,3.622,0,0,1-3.474,1.908,3.887,3.887,0,0,1-3.168-1.395,5.6,5.6,0,0,1,0-6.8,3.887,3.887,0,0,1,3.168-1.4A3.613,3.613,0,0,1,5413.739,988.956Zm.054,2.934a3.949,3.949,0,0,0-.863-2.619,2.913,2.913,0,0,0-2.359-1.035,2.976,2.976,0,0,0-2.385,1.044,4.24,4.24,0,0,0,0,5.2,2.974,2.974,0,0,0,2.385,1.045,2.9,2.9,0,0,0,2.359-1.045A3.926,3.926,0,0,0,5413.793,991.89Z"/><path class="b" d="M5425.6,995.643a3.8,3.8,0,0,1-6.625-2.655V987.3h1.278v5.6a2.791,2.791,0,0,0,.647,1.963,2.847,2.847,0,0,0,3.744,0,2.78,2.78,0,0,0,.649-1.963v-5.6h1.277v5.688A3.726,3.726,0,0,1,5425.6,995.643Z"/><path class="b" d="M5431.082,995.265a5.187,5.187,0,0,1,0-6.759,4.547,4.547,0,0,1,6.147-.423,4.36,4.36,0,0,1,1.4,2.475h-1.3a3.152,3.152,0,0,0-1.062-1.7,2.984,2.984,0,0,0-1.926-.62,2.938,2.938,0,0,0-2.331,1.026,4.294,4.294,0,0,0,0,5.238,2.938,2.938,0,0,0,2.331,1.026,2.979,2.979,0,0,0,1.926-.621,3.146,3.146,0,0,0,1.062-1.7h1.3a4.36,4.36,0,0,1-1.4,2.475,4.558,4.558,0,0,1-6.147-.414Z"/><path class="b" d="M5443.457,988.38v8.082h-1.278V988.38h-1.745V987.3h1.745v-2.611h1.278V987.3h1.872v1.08Z"/></g><g class="c" transform="translate(-4074.193 -624.462)"><path class="b" d="M5379.881,1026.462h-3.87v-12.78h3.87a7.438,7.438,0,0,1,5.228,1.728,6.717,6.717,0,0,1,0,9.324A7.438,7.438,0,0,1,5379.881,1026.462Zm4.257-2.61a5.554,5.554,0,0,0,0-7.56,6.229,6.229,0,0,0-4.329-1.35h-2.485v10.26h2.485A6.229,6.229,0,0,0,5384.138,1023.852Z"/><path class="b" d="M5398.6,1022.25h-7.615a3.612,3.612,0,0,0,.973,2.358,3.028,3.028,0,0,0,2.285.918,3.1,3.1,0,0,0,1.8-.531,2.788,2.788,0,0,0,1.08-1.4h1.332a4.26,4.26,0,0,1-4.23,3.078,4.154,4.154,0,0,1-3.3-1.4,5,5,0,0,1-1.215-3.411,4.91,4.91,0,0,1,1.25-3.384,4.151,4.151,0,0,1,3.25-1.4,4.1,4.1,0,0,1,3.2,1.341,4.806,4.806,0,0,1,1.207,3.339Zm-4.392-4.014a2.982,2.982,0,0,0-2.16.837,3.478,3.478,0,0,0-1.027,2.133h6.319a3.32,3.32,0,0,0-.964-2.16A2.984,2.984,0,0,0,5394.209,1018.236Z"/><path class="b" d="M5404.9,1026.678a3.855,3.855,0,0,1-2.763-.873,3.242,3.242,0,0,1-1-2.205h1.3a1.992,1.992,0,0,0,.692,1.44,2.685,2.685,0,0,0,1.773.522,3.185,3.185,0,0,0,1.774-.424,1.3,1.3,0,0,0,.639-1.131,1.173,1.173,0,0,0-.584-1.075,3.843,3.843,0,0,0-1.413-.479q-.825-.128-1.666-.3a2.777,2.777,0,0,1-1.422-.749,2.17,2.17,0,0,1-.585-1.62,2.434,2.434,0,0,1,.918-1.908,3.67,3.67,0,0,1,2.484-.792,3.151,3.151,0,0,1,3.492,2.9h-1.279a1.948,1.948,0,0,0-.648-1.286,2.338,2.338,0,0,0-1.6-.495,2.559,2.559,0,0,0-1.574.418,1.282,1.282,0,0,0-.549,1.064,1.082,1.082,0,0,0,.432.907,2.7,2.7,0,0,0,1.046.474l1.349.315,1.375.32a1.744,1.744,0,0,1,1.054.747,2.643,2.643,0,0,1,.414,1.533,2.412,2.412,0,0,1-.946,1.908A4.109,4.109,0,0,1,5404.9,1026.678Z"/><path class="b" d="M5412.586,1015.032a.921.921,0,0,1-.666-.243.847.847,0,0,1-.252-.639.908.908,0,0,1,.252-.657.922.922,0,0,1,1.584.657.832.832,0,0,1-.26.639A.93.93,0,0,1,5412.586,1015.032Zm-.648,11.43V1017.3h1.279v9.162Z"/><path class="b" d="M5424.358,1018.974V1017.3h1.224v8.712a4.545,4.545,0,0,1-1.107,3.168,4.064,4.064,0,0,1-3.176,1.224,4.365,4.365,0,0,1-2.854-.864,3.684,3.684,0,0,1-1.323-2.052h1.314a2.368,2.368,0,0,0,1.035,1.287,3.45,3.45,0,0,0,1.863.477,2.889,2.889,0,0,0,2.178-.819,2.941,2.941,0,0,0,.793-2.133v-1.71a3.632,3.632,0,0,1-3.4,1.854,3.933,3.933,0,0,1-3.15-1.368,5.273,5.273,0,0,1,0-6.624,3.933,3.933,0,0,1,3.15-1.368A3.661,3.661,0,0,1,5424.358,1018.974Zm-.873,5.328a4.113,4.113,0,0,0,0-5.067,2.962,2.962,0,0,0-2.348-1,3,3,0,0,0-2.367,1.008,4.021,4.021,0,0,0,0,5.049,2.988,2.988,0,0,0,2.367,1.017A2.95,2.95,0,0,0,5423.485,1024.3Z"/><path class="b" d="M5430.766,1017.3v1.4a3.156,3.156,0,0,1,1.08-1.116,3.439,3.439,0,0,1,1.944-.5,3.338,3.338,0,0,1,2.565.972,3.591,3.591,0,0,1,.909,2.556v5.85h-1.278v-5.6a2.91,2.91,0,0,0-.6-1.971,2.27,2.27,0,0,0-1.809-.693,2.6,2.6,0,0,0-2.754,2.808v5.454h-1.278V1017.3Z"/></g><g class="c" transform="translate(-4074.193 -624.462)"><path class="b" d="M4371.324,998.682v12.78h-1.313v-12.78Z"/><path class="b" d="M4382.683,1003.956v-5.994h1.278v13.5h-1.225v-1.692a3.619,3.619,0,0,1-3.473,1.908,3.883,3.883,0,0,1-3.168-1.395,5.594,5.594,0,0,1,0-6.8,3.883,3.883,0,0,1,3.168-1.4A3.614,3.614,0,0,1,4382.683,1003.956Zm.053,2.934a3.947,3.947,0,0,0-.863-2.619,2.911,2.911,0,0,0-2.358-1.035,2.981,2.981,0,0,0-2.386,1.044,4.24,4.24,0,0,0,0,5.2,2.978,2.978,0,0,0,2.386,1.045,2.9,2.9,0,0,0,2.358-1.045A3.924,3.924,0,0,0,4382.736,1006.89Z"/><path class="b" d="M4396.219,1007.25H4388.6a3.6,3.6,0,0,0,.972,2.358,3.027,3.027,0,0,0,2.286.918,3.1,3.1,0,0,0,1.8-.531,2.783,2.783,0,0,0,1.08-1.4h1.332a4.257,4.257,0,0,1-4.23,3.078,4.156,4.156,0,0,1-3.3-1.395,5.01,5.01,0,0,1-1.215-3.411,4.911,4.911,0,0,1,1.251-3.384,4.148,4.148,0,0,1,3.249-1.4,4.1,4.1,0,0,1,3.2,1.341,4.807,4.807,0,0,1,1.206,3.339Zm-4.393-4.014a2.983,2.983,0,0,0-2.16.837,3.463,3.463,0,0,0-1.025,2.133h6.318a3.325,3.325,0,0,0-.964-2.16A2.986,2.986,0,0,0,4391.826,1003.236Z"/><path class="b" d="M4407.918,1002.3v9.162h-1.225v-1.692a3.619,3.619,0,0,1-3.472,1.908,3.883,3.883,0,0,1-3.168-1.395,5.581,5.581,0,0,1,0-6.8,3.872,3.872,0,0,1,3.168-1.4,3.619,3.619,0,0,1,3.472,1.908V1002.3Zm-6.831,1.989a3.89,3.89,0,0,0-.891,2.6,3.851,3.851,0,0,0,.891,2.591,2.978,2.978,0,0,0,2.386,1.045,2.9,2.9,0,0,0,2.357-1.045,4.35,4.35,0,0,0,0-5.2,2.9,2.9,0,0,0-2.357-1.044A2.969,2.969,0,0,0,4401.087,1004.289Z"/><path class="b" d="M4413.624,1003.38v8.082h-1.278v-8.082H4410.6v-1.08h1.746v-2.611h1.278v2.611h1.872v1.08Z"/><path class="b" d="M4418.754,1000.032a.919.919,0,0,1-.666-.243.847.847,0,0,1-.252-.639.908.908,0,0,1,.252-.657.923.923,0,0,1,1.584.657.833.833,0,0,1-.262.639A.925.925,0,0,1,4418.754,1000.032Zm-.649,11.43V1002.3h1.279v9.162Z"/><path class="b" d="M4427.411,1011.678a4.352,4.352,0,0,1-3.375-1.413,5.092,5.092,0,0,1,0-6.768,4.76,4.76,0,0,1,6.769,0,5.093,5.093,0,0,1,0,6.768A4.375,4.375,0,0,1,4427.411,1011.678Zm-3.366-4.788a3.735,3.735,0,0,0,.935,2.6,3.392,3.392,0,0,0,4.879,0,4.107,4.107,0,0,0,0-5.22,3.146,3.146,0,0,0-2.448-1.035,3.113,3.113,0,0,0-2.438,1.035A3.774,3.774,0,0,0,4424.045,1006.89Z"/><path class="b" d="M4436.663,1002.3v1.4a3.156,3.156,0,0,1,1.08-1.116,3.44,3.44,0,0,1,1.945-.5,3.339,3.339,0,0,1,2.564.972,3.6,3.6,0,0,1,.909,2.556v5.85h-1.278v-5.6a2.91,2.91,0,0,0-.6-1.971,2.269,2.269,0,0,0-1.809-.693,2.751,2.751,0,0,0-1.98.738,2.724,2.724,0,0,0-.774,2.07v5.454h-1.278V1002.3Z"/></g><g class="c" transform="translate(-4074.193 -624.462)"><path class="b" d="M4623.881,1011.462h-3.87v-12.78h3.87a7.438,7.438,0,0,1,5.228,1.728,6.717,6.717,0,0,1,0,9.324A7.438,7.438,0,0,1,4623.881,1011.462Zm4.257-2.61a5.554,5.554,0,0,0,0-7.56,6.229,6.229,0,0,0-4.329-1.35h-2.485v10.26h2.485A6.229,6.229,0,0,0,4628.138,1008.852Z"/><path class="b" d="M4642.6,1007.25h-7.615a3.612,3.612,0,0,0,.973,2.358,3.028,3.028,0,0,0,2.285.918,3.1,3.1,0,0,0,1.8-.531,2.788,2.788,0,0,0,1.08-1.4h1.332a4.26,4.26,0,0,1-4.23,3.078,4.154,4.154,0,0,1-3.3-1.395,5.005,5.005,0,0,1-1.215-3.411,4.91,4.91,0,0,1,1.25-3.384,4.151,4.151,0,0,1,3.25-1.4,4.1,4.1,0,0,1,3.2,1.341,4.806,4.806,0,0,1,1.207,3.339Zm-4.392-4.014a2.982,2.982,0,0,0-2.16.837,3.478,3.478,0,0,0-1.027,2.133h6.319a3.32,3.32,0,0,0-.964-2.16A2.984,2.984,0,0,0,4638.209,1003.236Z"/><path class="b" d="M4648.9,1011.678a3.855,3.855,0,0,1-2.763-.873,3.241,3.241,0,0,1-1-2.205h1.3a1.992,1.992,0,0,0,.692,1.44,2.684,2.684,0,0,0,1.773.522,3.185,3.185,0,0,0,1.774-.424,1.3,1.3,0,0,0,.639-1.131,1.173,1.173,0,0,0-.584-1.075,3.843,3.843,0,0,0-1.413-.479q-.825-.128-1.666-.3a2.777,2.777,0,0,1-1.422-.749,2.17,2.17,0,0,1-.585-1.62,2.434,2.434,0,0,1,.918-1.908,3.67,3.67,0,0,1,2.484-.792,3.151,3.151,0,0,1,3.492,2.9h-1.279a1.948,1.948,0,0,0-.648-1.286,2.338,2.338,0,0,0-1.6-.495,2.559,2.559,0,0,0-1.574.418,1.282,1.282,0,0,0-.549,1.064,1.082,1.082,0,0,0,.432.907,2.7,2.7,0,0,0,1.046.474l1.349.315,1.375.32a1.744,1.744,0,0,1,1.054.747,2.643,2.643,0,0,1,.414,1.533,2.412,2.412,0,0,1-.946,1.908A4.108,4.108,0,0,1,4648.9,1011.678Z"/><path class="b" d="M4656.586,1000.032a.921.921,0,0,1-.666-.243.847.847,0,0,1-.252-.639.908.908,0,0,1,.252-.657.922.922,0,0,1,1.584.657.832.832,0,0,1-.26.639A.93.93,0,0,1,4656.586,1000.032Zm-.648,11.43V1002.3h1.279v9.162Z"/><path class="b" d="M4668.358,1003.974V1002.3h1.224v8.712a4.544,4.544,0,0,1-1.107,3.168,4.064,4.064,0,0,1-3.176,1.224,4.364,4.364,0,0,1-2.854-.864,3.683,3.683,0,0,1-1.323-2.052h1.314a2.368,2.368,0,0,0,1.035,1.287,3.45,3.45,0,0,0,1.863.477,2.89,2.89,0,0,0,2.178-.819,2.941,2.941,0,0,0,.793-2.133v-1.71a3.632,3.632,0,0,1-3.4,1.854,3.933,3.933,0,0,1-3.15-1.368,5.273,5.273,0,0,1,0-6.624,3.933,3.933,0,0,1,3.15-1.368A3.661,3.661,0,0,1,4668.358,1003.974Zm-.873,5.328a4.113,4.113,0,0,0,0-5.067,2.962,2.962,0,0,0-2.348-1,3,3,0,0,0-2.367,1.008,4.021,4.021,0,0,0,0,5.049,2.988,2.988,0,0,0,2.367,1.017A2.95,2.95,0,0,0,4667.485,1009.3Z"/><path class="b" d="M4674.766,1002.3v1.4a3.156,3.156,0,0,1,1.08-1.116,3.439,3.439,0,0,1,1.944-.5,3.338,3.338,0,0,1,2.565.972,3.591,3.591,0,0,1,.909,2.556v5.85h-1.278v-5.6a2.91,2.91,0,0,0-.6-1.971,2.27,2.27,0,0,0-1.809-.693,2.6,2.6,0,0,0-2.754,2.808v5.454h-1.278V1002.3Z"/></g><g class="c" transform="translate(-4074.193 -624.462)"><path d="M4900.324,1006.08v5.382h-1.313v-12.78h4.968a4.22,4.22,0,0,1,3.114,1.017,4.043,4.043,0,0,1-.009,5.355,4.2,4.2,0,0,1-3.1,1.026Zm0-1.26h3.709a2.852,2.852,0,0,0,2.026-.639,2.375,2.375,0,0,0,.673-1.809,2.351,2.351,0,0,0-.673-1.791,2.852,2.852,0,0,0-2.026-.639h-3.709Z"/><path d="M4915.318,1002.228v1.206c-.142-.012-.293-.018-.449-.018a2.733,2.733,0,0,0-1.98.729,2.8,2.8,0,0,0-.756,2.115v5.2h-1.278V1002.3h1.224v1.422a2.912,2.912,0,0,1,1.062-1.053,3.49,3.49,0,0,1,1.873-.459Z"/><path d="M4921.655,1011.678a4.354,4.354,0,0,1-3.375-1.413,5.093,5.093,0,0,1,0-6.768,4.76,4.76,0,0,1,6.769,0,5.092,5.092,0,0,1,0,6.768A4.372,4.372,0,0,1,4921.655,1011.678Zm-3.366-4.788a3.736,3.736,0,0,0,.936,2.6,3.392,3.392,0,0,0,4.879,0,4.11,4.11,0,0,0,0-5.22,3.148,3.148,0,0,0-2.449-1.035,3.114,3.114,0,0,0-2.438,1.035A3.776,3.776,0,0,0,4918.289,1006.89Z"/><path d="M4931.34,1003.38v8.082h-1.279v-8.082h-1.746v-1.08h1.746v-2.611h1.279v2.611h1.871v1.08Z"/><path d="M4939.6,1011.678a4.346,4.346,0,0,1-3.375-1.413,5.089,5.089,0,0,1,0-6.768,4.758,4.758,0,0,1,6.767,0,5.093,5.093,0,0,1,0,6.768A4.367,4.367,0,0,1,4939.6,1011.678Zm-3.367-4.788a3.732,3.732,0,0,0,.936,2.6,3.391,3.391,0,0,0,4.878,0,4.107,4.107,0,0,0,0-5.22,3.4,3.4,0,0,0-4.887,0A3.778,3.778,0,0,0,4936.235,1006.89Z"/><path d="M4949.285,1003.38v8.082h-1.278v-8.082h-1.745v-1.08h1.745v-2.611h1.278v2.611h1.872v1.08Z"/><path d="M4954.757,1015.17l1.557-3.727-3.826-9.143h1.387l3.084,7.6,3.18-7.6h1.349l-5.435,12.905Z"/><path d="M4965.521,1009.806v5.4h-1.279V1002.3h1.225v1.692a3.692,3.692,0,0,1,3.473-1.908,3.909,3.909,0,0,1,3.187,1.4,5.6,5.6,0,0,1,0,6.8,3.909,3.909,0,0,1-3.187,1.395A3.587,3.587,0,0,1,4965.521,1009.806Zm-.037-2.916a3.924,3.924,0,0,0,.864,2.591,2.9,2.9,0,0,0,2.358,1.045,2.977,2.977,0,0,0,2.386-1.045,4.244,4.244,0,0,0,0-5.2,2.979,2.979,0,0,0-2.386-1.044,2.908,2.908,0,0,0-2.358,1.035A3.947,3.947,0,0,0,4965.484,1006.89Z"/><path d="M4984.834,1007.25h-7.613a3.6,3.6,0,0,0,.97,2.358,3.031,3.031,0,0,0,2.288.918,3.1,3.1,0,0,0,1.8-.531,2.773,2.773,0,0,0,1.08-1.4h1.332a4.256,4.256,0,0,1-4.229,3.078,4.153,4.153,0,0,1-3.3-1.395,5.016,5.016,0,0,1-1.216-3.411,4.911,4.911,0,0,1,1.252-3.384,4.146,4.146,0,0,1,3.248-1.4,4.1,4.1,0,0,1,3.205,1.341,4.812,4.812,0,0,1,1.206,3.339Zm-4.393-4.014a2.978,2.978,0,0,0-2.159.837,3.47,3.47,0,0,0-1.026,2.133h6.318a3.32,3.32,0,0,0-.963-2.16A2.988,2.988,0,0,0,4980.441,1003.236Z"/></g></svg>