<svg id="Component_30_8" data-name="Component 30 – 8" xmlns="http://www.w3.org/2000/svg" width="1460" height="760" viewBox="0 0 1460 760">
  <g id="Ellipse_14" data-name="Ellipse 14" transform="translate(698)" stroke="#000" stroke-width="1">
    <ellipse cx="381" cy="380" rx="381" ry="380" stroke="none"/>
    <ellipse cx="381" cy="380" rx="380.5" ry="379.5" fill="none"/>
  </g>
  <circle id="Ellipse_9" data-name="Ellipse 9" cx="105" cy="105" r="105" transform="translate(0 275)"/>
  <circle id="Ellipse_13" data-name="Ellipse 13" cx="105" cy="105" r="105" transform="translate(1037 275)" fill="#fff"/>
  <circle id="Ellipse_10" data-name="Ellipse 10" cx="122" cy="122" r="122" transform="translate(210 258)"/>
  <circle id="Ellipse_11" data-name="Ellipse 11" cx="122" cy="122" r="122" transform="translate(454 258)"/>
  <ellipse id="Ellipse_12" data-name="Ellipse 12" cx="169.5" cy="169" rx="169.5" ry="169" transform="translate(698 211)" fill="#fff"/>
  <text id="PreWrite" transform="translate(105 387)" fill="#fff" font-size="18" font-family="Eina03-Regular" letter-spacing="0.05em"><tspan x="-39" y="0">PreWrite</tspan></text>
  <text id="Proofread" transform="translate(1096 387)" font-size="18" font-family="Eina03-Regular" letter-spacing="0.05em"><tspan x="0" y="0">Proofread</tspan></text>
  <text id="Publish_Manage" data-name="Publish &amp;
Manage" transform="translate(1283 372)" fill="#fff" font-size="18" font-family="Eina03-Regular" letter-spacing="0.05em"><tspan x="0" y="0">Publish &amp;</tspan><tspan x="0" y="30">Manage</tspan></text>
  <text id="Plan" transform="translate(332 387)" fill="#fff" font-size="18" font-family="Eina03-Regular" letter-spacing="0.05em"><tspan x="-20" y="0">Plan</tspan></text>
  <text id="Draft" transform="translate(576 387)" fill="#fff" font-size="18" font-family="Eina03-Regular" letter-spacing="0.05em"><tspan x="-22" y="0">Draft</tspan></text>
  <text id="Revise" transform="translate(837 387)" font-size="18" font-family="Eina03-Regular" letter-spacing="0.05em"><tspan x="0" y="0">Revise</tspan></text>
</svg>
