<svg xmlns="http://www.w3.org/2000/svg" width="30" height="30" viewBox="0 0 30 30"><defs><style>.a{fill:none;stroke:#ffa36a;stroke-linecap:round;stroke-linejoin:round;stroke-width:3px;}</style></defs><g transform="translate(1.5 1.5)"><path class="a" d="M16.2,13.5H28.35a2.7,2.7,0,0,1,2.7,2.7V28.35a2.7,2.7,0,0,1-2.7,2.7H16.2a2.7,2.7,0,0,1-2.7-2.7V16.2A2.7,2.7,0,0,1,16.2,13.5Z" transform="translate(-4.05 -4.05)"/><path class="a" d="M7.05,20.55H5.7A2.7,2.7,0,0,1,3,17.85V5.7A2.7,2.7,0,0,1,5.7,3H17.85a2.7,2.7,0,0,1,2.7,2.7V7.05" transform="translate(-3 -3)"/></g></svg>