<svg xmlns="http://www.w3.org/2000/svg" width="27" height="27" viewBox="0 0 27 27"><defs><style>.a{fill:#58bfff;}</style></defs><path class="a" d="M24.107,2.25H2.893A2.894,2.894,0,0,0,0,5.143V26.357A2.894,2.894,0,0,0,2.893,29.25H24.107A2.894,2.894,0,0,0,27,26.357V5.143A2.894,2.894,0,0,0,24.107,2.25ZM21.16,11.821c.012.169.012.344.012.512A11.169,11.169,0,0,1,9.926,23.579a11.194,11.194,0,0,1-6.069-1.772,8.327,8.327,0,0,0,.952.048,7.925,7.925,0,0,0,4.906-1.687,3.958,3.958,0,0,1-3.694-2.742A4.26,4.26,0,0,0,7.8,17.353a3.953,3.953,0,0,1-3.164-3.881v-.048a3.95,3.95,0,0,0,1.784.5,3.944,3.944,0,0,1-1.76-3.291A3.9,3.9,0,0,1,5.2,8.638a11.223,11.223,0,0,0,8.148,4.134,3.961,3.961,0,0,1,6.744-3.61A7.745,7.745,0,0,0,22.6,8.21a3.942,3.942,0,0,1-1.736,2.176,7.866,7.866,0,0,0,2.278-.615A8.32,8.32,0,0,1,21.16,11.821Z" transform="translate(0 -2.25)"/></svg>