<?xml version="1.0" standalone="no"?>
<!DOCTYPE svg PUBLIC "-//W3C//DTD SVG 20010904//EN"
 "http://www.w3.org/TR/2001/REC-SVG-20010904/DTD/svg10.dtd">
<svg version="1.0" xmlns="http://www.w3.org/2000/svg"
 width="1200.000000pt" height="1200.000000pt" viewBox="0 0 1200.000000 1200.000000"
 preserveAspectRatio="xMidYMid meet">

<g transform="translate(0.000000,1200.000000) scale(0.100000,-0.100000)"
fill="#000000" stroke="none">
<path d="M5545 8968 c-236 -138 -747 -435 -1135 -660 -388 -225 -708 -412
-712 -416 -4 -4 -11 -178 -15 -387 -6 -342 -5 -378 10 -372 17 6 454 259 652
377 109 65 397 232 1540 895 l90 53 6 78 c9 122 10 684 2 683 -5 0 -201 -113
-438 -251z"/>
<path d="M5365 7555 c-335 -195 -698 -405 -805 -466 -107 -62 -260 -152 -340
-199 -80 -48 -224 -132 -320 -188 -96 -55 -183 -107 -192 -114 -16 -12 -19
-48 -25 -392 -6 -353 -5 -379 11 -373 17 7 270 153 591 342 232 137 399 234
615 357 91 52 260 150 375 218 116 68 320 187 455 266 l245 142 6 78 c9 122
10 684 2 683 -5 0 -282 -160 -618 -354z"/>
<path d="M8115 7769 c-272 -159 -364 -213 -500 -294 -66 -40 -185 -109 -265
-155 -305 -174 -486 -280 -820 -475 -190 -111 -382 -224 -427 -250 l-81 -47
-4 -76 c-3 -43 -5 -215 -6 -384 l-2 -306 577 335 c318 184 623 361 678 393
602 349 1027 598 1037 608 11 11 23 762 12 762 -5 0 -94 -50 -199 -111z"/>
<path d="M8125 6466 c-255 -151 -380 -224 -1305 -763 l-795 -463 -6 -78 c-7
-98 -11 -682 -4 -682 5 0 447 255 1250 723 237 138 565 328 730 424 165 96
303 177 307 181 8 8 24 773 17 771 -2 -1 -89 -51 -194 -113z"/>
<path d="M2380 3116 l0 -416 70 0 70 0 0 174 0 173 113 6 c61 3 128 11 147 18
121 42 181 160 146 283 -21 71 -62 117 -128 146 -47 20 -75 23 -235 28 l-183
5 0 -417z m358 264 c51 -31 66 -93 37 -150 -21 -41 -83 -62 -175 -58 l-75 3
-3 113 -3 112 93 0 c75 0 99 -4 126 -20z"/>
<path d="M3417 3428 c-19 -57 -82 -244 -141 -416 l-105 -313 71 3 72 3 27 90
26 90 116 3 116 3 25 -85 c14 -46 26 -89 26 -95 0 -7 27 -11 75 -11 l74 0
-139 412 c-77 227 -140 414 -140 415 0 2 -15 3 -34 3 l-34 0 -35 -102z m108
-290 c19 -64 35 -123 35 -132 0 -13 -13 -16 -73 -16 -41 0 -76 3 -79 6 -4 3 0
24 7 47 8 23 26 82 40 130 15 49 28 87 31 85 2 -3 19 -57 39 -120z"/>
<path d="M4040 3115 l0 -415 65 0 65 0 0 292 c0 166 4 288 9 283 4 -6 73 -137
152 -292 l144 -283 63 0 62 0 0 383 c0 210 4 397 9 415 l10 32 -70 0 -69 0 0
-277 -1 -278 -142 277 -142 278 -77 0 -78 0 0 -415z"/>
<path d="M4869 3528 c-1 -2 -2 -29 -3 -60 l-2 -58 113 0 113 0 0 -355 0 -355
70 0 70 0 0 355 0 355 115 0 115 0 0 60 0 60 -295 0 c-162 0 -296 -1 -296 -2z"/>
<path d="M5740 3115 l0 -415 265 0 265 0 0 60 0 60 -195 0 -195 0 0 125 0 125
165 0 165 0 0 60 0 60 -165 0 -165 0 0 110 0 110 200 0 200 0 0 60 0 60 -270
0 -270 0 0 -415z"/>
<path d="M6580 3115 l0 -415 265 0 265 0 0 60 0 60 -192 2 -193 3 -3 319 c-1
176 2 334 7 352 l9 34 -79 0 -79 0 0 -415z"/>
<path d="M7410 3115 l0 -415 265 0 265 0 0 60 0 60 -195 0 -195 0 0 125 0 125
165 0 165 0 0 60 0 60 -165 0 -165 0 0 110 0 110 200 0 200 0 0 60 0 60 -270
0 -270 0 0 -415z"/>
<path d="M8250 3115 l0 -415 265 0 265 0 0 60 0 60 -195 0 -195 0 0 125 0 125
165 0 165 0 0 60 0 60 -165 0 -165 0 0 110 0 110 200 0 200 0 0 60 0 60 -270
0 -270 0 0 -415z"/>
<path d="M9050 3524 c0 -4 59 -191 132 -415 l132 -409 46 0 47 0 128 403 c71
221 130 408 133 415 3 9 -14 12 -64 12 l-69 0 -79 -282 c-43 -156 -82 -287
-87 -292 -4 -4 -12 7 -17 25 -5 19 -44 150 -87 292 l-78 257 -69 0 c-37 0 -68
-3 -68 -6z"/>
</g>
</svg>
