<svg xmlns="http://www.w3.org/2000/svg" width="164.723" height="36.591" viewBox="0 0 164.723 36.591"><defs><style>.a{fill:#fff;}</style></defs><path class="a" d="M109.092,82.665h-1.784a1.054,1.054,0,0,1-.275-.667q0-.646.726-.646a1.307,1.307,0,0,1,.823.333v-.863a1.628,1.628,0,0,0-.94-.313,1.408,1.408,0,0,0-1.019.422,1.339,1.339,0,0,0-.432.989,1.515,1.515,0,0,0,.2.746h-.529l-.451.843h3.234Z" transform="translate(-94.746 -79.341)"/><path class="a" d="M105.452,98.371a4.384,4.384,0,0,1-2.058-.549v1.49a4.852,4.852,0,0,0,2.294.568,3.742,3.742,0,0,0,2.921-1.216,5.072,5.072,0,0,0,1.157-3.509V90.882a3.536,3.536,0,0,0-.8-2.411,3.218,3.218,0,0,0-2.568-1.039,3.445,3.445,0,0,0-2.627,1.059,5.194,5.194,0,0,0-.274,6.057,3.257,3.257,0,0,0,2.744,1.314,4.985,4.985,0,0,0,1.823-.294,3.2,3.2,0,0,1-.765,2.068A2.4,2.4,0,0,1,105.452,98.371Zm.843-3.96a1.716,1.716,0,0,1-1.461-.736,3.262,3.262,0,0,1-.539-1.97,3.173,3.173,0,0,1,.559-1.98A1.834,1.834,0,0,1,106.392,89q1.666,0,1.667,1.96v2.726A1.946,1.946,0,0,1,106.295,94.412Z" transform="translate(-93.703 -81.958)"/><path class="a" d="M119.966,92.923h8.175a3.476,3.476,0,0,0,2.372-.8,3.363,3.363,0,0,0,1.039-2.627V89.16A4.238,4.238,0,0,0,130.3,86a4.854,4.854,0,0,0-3.588-1.372h-.117l3.861-4.353h-1.725l-4.294,4.764v1.667a6.293,6.293,0,0,1,2.1-.373,3.84,3.84,0,0,1,2.2.608,2.554,2.554,0,0,1,1.137,2.234v.177q0,1.98-1.882,1.98h-7.823a1.716,1.716,0,0,1-1.921-1.961v-10.6l-1.686.9v9.753a3.608,3.608,0,0,0,.784,2.392A3.239,3.239,0,0,0,119.966,92.923Z" transform="translate(-98.961 -78.688)"/><path class="a" d="M174.611,85.166q.941,0,.942-.98a.951.951,0,1,0-1.9,0A.857.857,0,0,0,174.611,85.166Z" transform="translate(-120.548 -80.368)"/><path class="a" d="M171.609,80.572q.942,0,.942-.98a.951.951,0,1,0-1.9,0A.858.858,0,0,0,171.609,80.572Z" transform="translate(-119.414 -78.631)"/><path class="a" d="M168.607,85.166q.942,0,.942-.98a.951.951,0,1,0-1.9,0A.858.858,0,0,0,168.607,85.166Z" transform="translate(-118.279 -80.368)"/><path class="a" d="M167.51,92.861V87.842l-1.686.9V92.8a1.716,1.716,0,0,1-1.921,1.961h-.921a1.707,1.707,0,0,1-1.9-1.961V89.131l-1.686.882V92.8a1.716,1.716,0,0,1-1.922,1.961h-.9a1.716,1.716,0,0,1-1.922-1.961V89.131l-1.686.9V92.8a1.707,1.707,0,0,1-1.9,1.961h-2.97a1.656,1.656,0,0,1-1.9-1.568V87.842l-.02.02v-.02l-1.686.9v6.685a3.529,3.529,0,0,1-.705,2.333,2.419,2.419,0,0,1-1.961.843,4.124,4.124,0,0,1-2-.549v1.471a4.87,4.87,0,0,0,2.294.588,3.7,3.7,0,0,0,2.705-1.058,4.781,4.781,0,0,0,1.353-3.1,3.581,3.581,0,0,0,1.726.392h3.342a2.966,2.966,0,0,0,2.568-1.157,3.031,3.031,0,0,0,2.568,1.157h1.353a2.971,2.971,0,0,0,2.509-1.157A2.966,2.966,0,0,0,162.8,96.35h1.353a3.286,3.286,0,0,0,2.353-.882A3.406,3.406,0,0,0,167.51,92.861Z" transform="translate(-107.757 -82.114)"/><path class="a" d="M199.3,95.862a4.985,4.985,0,0,0,1.823-.294,3.2,3.2,0,0,1-.765,2.068,2.4,2.4,0,0,1-1.843.735,4.384,4.384,0,0,1-2.059-.549v1.49a4.852,4.852,0,0,0,2.294.568,3.742,3.742,0,0,0,2.921-1.216,5.071,5.071,0,0,0,1.157-3.509V90.882a3.536,3.536,0,0,0-.8-2.411,3.218,3.218,0,0,0-2.568-1.039,3.445,3.445,0,0,0-2.627,1.059,5.194,5.194,0,0,0-.274,6.057A3.257,3.257,0,0,0,199.3,95.862Zm-1.382-6.136A1.834,1.834,0,0,1,199.455,89q1.666,0,1.667,1.96v2.726a1.946,1.946,0,0,1-1.764.725,1.716,1.716,0,0,1-1.461-.736,3.262,3.262,0,0,1-.539-1.97A3.173,3.173,0,0,1,197.917,89.726Z" transform="translate(-128.89 -81.958)"/><path class="a" d="M274.055,105.656q0-.98-.941-.98a.858.858,0,0,0-.961.98.849.849,0,0,0,.961.96A.84.84,0,0,0,274.055,105.656Z" transform="translate(-157.792 -88.479)"/><path class="a" d="M269.051,105.656q0-.98-.941-.98a.858.858,0,0,0-.961.98.849.849,0,0,0,.961.96A.84.84,0,0,0,269.051,105.656Z" transform="translate(-155.9 -88.479)"/><path class="a" d="M294,104.676a.858.858,0,0,0-.96.98.951.951,0,1,0,1.9,0Q294.938,104.676,294,104.676Z" transform="translate(-165.688 -88.479)"/><path class="a" d="M289.934,105.656q0-.98-.941-.98a.858.858,0,0,0-.961.98.849.849,0,0,0,.961.96A.84.84,0,0,0,289.934,105.656Z" transform="translate(-163.796 -88.479)"/><path class="a" d="M322.079,82.848q.942,0,.942-.98a.951.951,0,1,0-1.9,0A.858.858,0,0,0,322.079,82.848Z" transform="translate(-176.306 -79.492)"/><path class="a" d="M351.984,78.779l-1.686.9V92.924h1.686Z" transform="translate(-187.339 -78.688)"/><path class="a" d="M91.971,96.4a4.626,4.626,0,0,0,1.544-.243,2.889,2.889,0,0,0,1.164-.747,3.416,3.416,0,0,0,.738-1.3,6.128,6.128,0,0,0,.262-1.9,4.463,4.463,0,0,0-.989-3.231,4.195,4.195,0,0,0-5.435,0,4.463,4.463,0,0,0-.989,3.231,4.4,4.4,0,0,0,.989,3.2A3.671,3.671,0,0,0,91.971,96.4ZM90.389,90.21a2.1,2.1,0,0,1,3.164,0,3.488,3.488,0,0,1,.494,2,3.352,3.352,0,0,1-.494,2.039,2.274,2.274,0,0,1-3.164,0,3.351,3.351,0,0,1-.5-2.039A3.488,3.488,0,0,1,90.389,90.21Z" transform="translate(-88.264 -82.165)"/><path class="a" d="M291.142,92.923h2.42a3.554,3.554,0,0,0,2.568-.941,3.7,3.7,0,0,0,1.039-2.764V78.779l-1.705.9V89.2q0,2.137-2.039,2.137h-2.381a5.088,5.088,0,0,1-3.294-.882,9.084,9.084,0,0,0,1.157-1.236v-.863a9.493,9.493,0,0,0-2.49-3.107A4.733,4.733,0,0,0,283.5,84.16a4.885,4.885,0,0,0-3.489,1.667V87.4a4.788,4.788,0,0,1,3.274-1.687q2.333,0,3.96,3a7.956,7.956,0,0,1-6.292,2.627H267.475a1.716,1.716,0,0,1-1.921-1.961v-4.96l-1.686.9v4.058a1.716,1.716,0,0,1-1.921,1.961h-7.459a1.716,1.716,0,0,1-1.921-1.961v-4.96l-1.686.9v4.058a1.716,1.716,0,0,1-1.921,1.961h-6.884a1.884,1.884,0,0,1-1.46-.49,2.411,2.411,0,0,1-.442-1.628V78.779l-1.705.9V89.2q0,2.137-2.039,2.137h-1.344v0h-7.768l-1.176,1.589h2.592A1.959,1.959,0,0,1,226.8,94.7l-.295,0h0l-3.47,0c-.056,0-.213,0-.3-.008a2.339,2.339,0,0,1-1.134-.367,2.539,2.539,0,0,1-.82-.83,3.083,3.083,0,0,1-.224-.434,4.344,4.344,0,0,1-.214-.836,2.636,2.636,0,0,1,.4-1.719l.594-.95-1.347-.843-.594.949a4.23,4.23,0,0,0-.626,2.765c.009.065.017.119.024.155a5.562,5.562,0,0,0,.3,1.086,4.725,4.725,0,0,0,.343.667,4.152,4.152,0,0,0,1.327,1.336,3.909,3.909,0,0,0,1.858.6c.083.007.335.013.42.013l3.765,0a3.558,3.558,0,0,0,3.531-3.371h4.441v0h1.8a3.473,3.473,0,0,0,2.706-1.078,3.239,3.239,0,0,0,2.606,1.078h7.276a3.29,3.29,0,0,0,2.568-1.039,3.291,3.291,0,0,0,2.568,1.039h7.851a3.29,3.29,0,0,0,2.568-1.039,3.291,3.291,0,0,0,2.568,1.039h13.649a10.147,10.147,0,0,0,5.764-1.647,4.572,4.572,0,0,0,1.784,1.284,7.355,7.355,0,0,0,2.549.363Z" transform="translate(-137.593 -78.688)"/><path class="a" d="M225.034,110.932a.951.951,0,1,0-1.9,0,.858.858,0,0,0,.96.981Q225.034,111.913,225.034,110.932Z" transform="translate(-139.257 -90.481)"/><path class="a" d="M229.1,109.972a.849.849,0,0,0-.96.96.858.858,0,0,0,.96.981q.941,0,.941-.981A.84.84,0,0,0,229.1,109.972Z" transform="translate(-141.15 -90.481)"/><path class="a" d="M138.655,125.681h-4.419v-4.206h-1.679V131.4h1.679V127.2h4.419V131.4h1.679v-9.929h-1.679Z" transform="translate(-105.011 -94.831)"/><path class="a" d="M150.041,131.431h1.68V121.5l-1.68.885Z" transform="translate(-111.621 -94.841)"/><path class="a" d="M172.2,121.475l-1.679.885V131.4h5.066v-1.515H172.2Z" transform="translate(-119.364 -94.831)"/><path class="a" d="M181.992,131.4h1.68v-9.929l-1.68.885Z" transform="translate(-123.703 -94.831)"/><path class="a" d="M202.879,126.2H201l-1.051,1.6-1.522-1.644a5.485,5.485,0,0,0,.687-.411,3.357,3.357,0,0,0,.611-.547,2.55,2.55,0,0,0,.425-.672,2.01,2.01,0,0,0,.158-.807,2.149,2.149,0,0,0-.222-1,2.011,2.011,0,0,0-.586-.7,2.553,2.553,0,0,0-.844-.407,3.7,3.7,0,0,0-1.015-.136,3.534,3.534,0,0,0-1.032.147,2.692,2.692,0,0,0-.858.432,2.065,2.065,0,0,0-.6.726,2.246,2.246,0,0,0-.221,1.026,2.167,2.167,0,0,0,.09.636,2.626,2.626,0,0,0,.235.547,3.641,3.641,0,0,0,.34.49c.129.157.266.322.414.493a3.873,3.873,0,0,0-.8.426,3.089,3.089,0,0,0-.646.6,2.791,2.791,0,0,0-.433.751,2.419,2.419,0,0,0-.161.886,2.542,2.542,0,0,0,.268,1.187,2.751,2.751,0,0,0,.708.873,3,3,0,0,0,1.018.536,4.087,4.087,0,0,0,1.208.178,3.469,3.469,0,0,0,1.566-.322,3.969,3.969,0,0,0,1.223-1l1.224,1.322h2.065l-2.267-2.473Zm-6.012-3.02a1.264,1.264,0,0,1,.8-.261,1.124,1.124,0,0,1,.733.247.785.785,0,0,1,.3.639.96.96,0,0,1-.118.472,1.57,1.57,0,0,1-.31.393,2.615,2.615,0,0,1-.422.318c-.152.094-.3.178-.429.254a3.828,3.828,0,0,1-.311-.3,4.5,4.5,0,0,1-.286-.347,1.958,1.958,0,0,1-.215-.361.872.872,0,0,1-.081-.361A.83.83,0,0,1,196.868,123.18Zm1.323,6.487a1.621,1.621,0,0,1-.959.293,1.538,1.538,0,0,1-.575-.107,1.59,1.59,0,0,1-.475-.294,1.36,1.36,0,0,1-.45-1.022,1.243,1.243,0,0,1,.114-.55,1.589,1.589,0,0,1,.3-.426,2.7,2.7,0,0,1,.415-.343q.229-.154.465-.3l1.937,2.1A6.408,6.408,0,0,1,198.19,129.667Z" transform="translate(-128.232 -94.83)"/><path class="a" d="M237.983,126.226a4.511,4.511,0,0,0-1.083-.479q-.591-.174-1.08-.361a3.323,3.323,0,0,1-.826-.44.861.861,0,0,1-.336-.732,1.063,1.063,0,0,1,.486-.933,1.558,1.558,0,0,1,.5-.215,2.355,2.355,0,0,1,.568-.068,2.458,2.458,0,0,1,.94.182,1.569,1.569,0,0,1,.711.561l1.222-1.287a3.351,3.351,0,0,0-1.251-.751,4.61,4.61,0,0,0-1.451-.229,4.724,4.724,0,0,0-1.283.175,3.431,3.431,0,0,0-1.112.529,2.75,2.75,0,0,0-.787.886,2.534,2.534,0,0,0-.3,1.262,2.366,2.366,0,0,0,.336,1.343,2.662,2.662,0,0,0,.825.8,4.4,4.4,0,0,0,1.076.471q.587.172,1.083.369a2.982,2.982,0,0,1,.829.475.985.985,0,0,1,.333.8,1.093,1.093,0,0,1-.147.568,1.243,1.243,0,0,1-.389.407,1.8,1.8,0,0,1-.537.239,2.231,2.231,0,0,1-.585.079,2.277,2.277,0,0,1-1.058-.257,2.035,2.035,0,0,1-.8-.729l-1.273,1.223a3.341,3.341,0,0,0,1.409.994,4.907,4.907,0,0,0,1.687.293,4.591,4.591,0,0,0,1.319-.186,3.25,3.25,0,0,0,1.1-.561,2.7,2.7,0,0,0,.754-.943,2.98,2.98,0,0,0,.279-1.327,2.435,2.435,0,0,0-.332-1.351A2.631,2.631,0,0,0,237.983,126.226Z" transform="translate(-142.834 -94.83)"/><path class="a" d="M251.177,126.226a4.511,4.511,0,0,0-1.083-.479q-.591-.174-1.08-.361a3.322,3.322,0,0,1-.826-.44.86.86,0,0,1-.335-.732,1.06,1.06,0,0,1,.486-.933,1.564,1.564,0,0,1,.5-.215A2.357,2.357,0,0,1,249.4,123a2.457,2.457,0,0,1,.939.182,1.569,1.569,0,0,1,.711.561l1.222-1.287a3.351,3.351,0,0,0-1.251-.751,4.607,4.607,0,0,0-1.451-.229,4.728,4.728,0,0,0-1.283.175,3.431,3.431,0,0,0-1.112.529,2.748,2.748,0,0,0-.786.886,2.527,2.527,0,0,0-.3,1.262,2.371,2.371,0,0,0,.336,1.343,2.669,2.669,0,0,0,.825.8,4.414,4.414,0,0,0,1.076.471q.587.172,1.083.369a2.964,2.964,0,0,1,.829.475.986.986,0,0,1,.333.8,1.093,1.093,0,0,1-.147.568,1.243,1.243,0,0,1-.389.407,1.8,1.8,0,0,1-.537.239,2.228,2.228,0,0,1-.585.079,2.277,2.277,0,0,1-1.058-.257,2.035,2.035,0,0,1-.8-.729l-1.273,1.223a3.349,3.349,0,0,0,1.409.994,4.911,4.911,0,0,0,1.687.293,4.587,4.587,0,0,0,1.318-.186,3.25,3.25,0,0,0,1.1-.561,2.7,2.7,0,0,0,.754-.943,2.98,2.98,0,0,0,.279-1.327,2.43,2.43,0,0,0-.332-1.351A2.624,2.624,0,0,0,251.177,126.226Z" transform="translate(-147.823 -94.83)"/><path class="a" d="M268.134,122.819a4.561,4.561,0,0,0-1.59-.994,5.7,5.7,0,0,0-2.024-.35,5.475,5.475,0,0,0-2.008.358,4.567,4.567,0,0,0-1.573,1.008,4.631,4.631,0,0,0-1.033,1.576,5.434,5.434,0,0,0-.375,2.062,5.221,5.221,0,0,0,.375,2.016,4.506,4.506,0,0,0,2.606,2.552,5.462,5.462,0,0,0,2.008.358,5.541,5.541,0,0,0,2.024-.361,4.58,4.58,0,0,0,1.59-1.019,4.73,4.73,0,0,0,1.037-1.573,5.286,5.286,0,0,0,.375-2.023,5.364,5.364,0,0,0-.375-2.052A4.57,4.57,0,0,0,268.134,122.819Zm-.579,4.957a3.226,3.226,0,0,1-.662,1.1,3.119,3.119,0,0,1-1.025.733,3.442,3.442,0,0,1-2.664,0,3.087,3.087,0,0,1-1.019-.733,3.314,3.314,0,0,1-.661-1.1,4.04,4.04,0,0,1-.236-1.4,3.637,3.637,0,0,1,.236-1.318,3.393,3.393,0,0,1,.661-1.077,2.963,2.963,0,0,1,1.019-.722,3.581,3.581,0,0,1,2.664,0,2.994,2.994,0,0,1,1.025.722,3.3,3.3,0,0,1,.662,1.077,3.676,3.676,0,0,1,.233,1.318A4.084,4.084,0,0,1,267.555,127.776Z" transform="translate(-153.02 -94.83)"/><path class="a" d="M285.367,129.606a2.419,2.419,0,0,1-1.111.275,3.2,3.2,0,0,1-1.331-.268,3.083,3.083,0,0,1-1.018-.733,3.3,3.3,0,0,1-.661-1.1,4.025,4.025,0,0,1-.236-1.4,3.623,3.623,0,0,1,.236-1.318,3.381,3.381,0,0,1,.661-1.077,2.96,2.96,0,0,1,1.018-.722,3.324,3.324,0,0,1,1.331-.257,2.728,2.728,0,0,1,.979.185,2.814,2.814,0,0,1,1.007.751l1.308-.958a4.324,4.324,0,0,0-1.537-1.158,4.52,4.52,0,0,0-1.773-.343,5.477,5.477,0,0,0-2.008.358,4.579,4.579,0,0,0-1.573,1.008,4.629,4.629,0,0,0-1.032,1.576,5.434,5.434,0,0,0-.375,2.062,5.221,5.221,0,0,0,.375,2.016,4.5,4.5,0,0,0,2.605,2.552,5.465,5.465,0,0,0,2.008.358,4.852,4.852,0,0,0,1.963-.4,3.812,3.812,0,0,0,1.562-1.279l-1.387-.994A3.105,3.105,0,0,1,285.367,129.606Z" transform="translate(-160.477 -94.83)"/><path class="a" d="M296.853,131.4h1.68v-9.929l-1.68.885Z" transform="translate(-167.132 -94.831)"/><path class="a" d="M317.154,122.991h2.561V131.4H321.4v-8.414h2.417v-1.515h-6.664Z" transform="translate(-174.807 -94.831)"/><path class="a" d="M348.82,127.037a2.624,2.624,0,0,0-.825-.811,4.517,4.517,0,0,0-1.083-.479q-.59-.174-1.08-.361a3.334,3.334,0,0,1-.826-.44.862.862,0,0,1-.335-.732,1.06,1.06,0,0,1,.486-.933,1.561,1.561,0,0,1,.5-.215,2.351,2.351,0,0,1,.568-.068,2.456,2.456,0,0,1,.939.182,1.569,1.569,0,0,1,.711.561l1.222-1.287a3.351,3.351,0,0,0-1.251-.751,4.6,4.6,0,0,0-1.45-.229,4.732,4.732,0,0,0-1.284.175,3.431,3.431,0,0,0-1.112.529,2.755,2.755,0,0,0-.786.886,2.527,2.527,0,0,0-.3,1.262,2.371,2.371,0,0,0,.336,1.343,2.664,2.664,0,0,0,.825.8,4.4,4.4,0,0,0,1.075.471q.587.172,1.083.369a2.964,2.964,0,0,1,.829.475.986.986,0,0,1,.333.8,1.093,1.093,0,0,1-.147.568,1.243,1.243,0,0,1-.389.407,1.8,1.8,0,0,1-.537.239,2.228,2.228,0,0,1-.585.079,2.277,2.277,0,0,1-1.058-.257,2.035,2.035,0,0,1-.8-.729l-1.273,1.223a3.348,3.348,0,0,0,1.409.994,4.911,4.911,0,0,0,1.687.293,4.583,4.583,0,0,0,1.318-.186,3.252,3.252,0,0,0,1.1-.561,2.7,2.7,0,0,0,.754-.943,2.98,2.98,0,0,0,.279-1.327A2.43,2.43,0,0,0,348.82,127.037Z" transform="translate(-184.43 -94.83)"/><path class="a" d="M163.175,122.992l.622-1.517h-6.076V131.4h5.454l.622-1.517h-4.4V127.2h2.53l.622-1.517H159.4v-2.689Z" transform="translate(-114.525 -94.831)"/><path class="a" d="M336.7,122.992l.622-1.517h-6.076V131.4H336.7l.622-1.517h-4.4V127.2h2.53l.622-1.517h-3.152v-2.689Z" transform="translate(-180.135 -94.831)"/><path class="a" d="M89.057,131.4h1.833l2.5-5.723,2.5,5.723h1.833l-4.333-9.929Z" transform="translate(-88.563 -94.831)"/><path class="a" d="M216.591,131.4h1.833l2.5-5.723,2.5,5.723h1.833l-4.333-9.929Z" transform="translate(-136.784 -94.831)"/><path class="a" d="M302.828,131.4h1.833l2.5-5.723,2.5,5.723h1.833l-4.333-9.929Z" transform="translate(-169.391 -94.831)"/><path class="a" d="M123,121.475l-3.77,3.784v-3.784h-1.68V131.4h1.68v-3.77l0,0h0L123,131.4h2.376l-4.957-4.958,4.957-4.971Z" transform="translate(-99.336 -94.831)"/><path class="a" d="M107.653,121.475l-1.679.885V131.4h5.066v-1.515h-3.386Z" transform="translate(-94.959 -94.831)"/></svg>