<svg xmlns="http://www.w3.org/2000/svg" width="323.207" height="32.241" viewBox="0 0 323.207 32.241"><defs><style>.a{fill:#fff;}</style></defs><path class="a" d="M643.452,261.233l1.41-3.782h2.469v6.518h-1.74V259.7h-.034l-1.407,4.27H642.76l-1.41-4.27h-.032v4.27h-1.739v-6.518h2.466Zm-5.187-2.279h-1.74v5.015h-1.979v-5.015h-1.739v-1.5h5.458Z" transform="translate(-324.125 -257.451)"/><path class="a" d="M622.464,257.451v25.925h-6.18V257.451Z" transform="translate(-315.778 -257.451)"/><path class="a" d="M578.041,278.685c.363-2.292,1.817-3.85,3.995-3.85a3.812,3.812,0,0,1,3.665,3.85Zm3.995-8.025a9.888,9.888,0,0,0-10.168,9.91c0,6.314,4.173,10.018,10.308,10.018,4.217,0,8.242-1.892,9.369-6.244h-5.77a3.681,3.681,0,0,1-3.524,2.069c-2.613,0-4.1-1.705-4.209-4.284h13.831C592.161,275.736,588.786,270.66,582.035,270.66Z" transform="translate(-293.339 -264.124)"/><path class="a" d="M556.332,271.03a6.7,6.7,0,0,1,1.455.144V276.8a8.578,8.578,0,0,0-2.359-.361,4.335,4.335,0,0,0-4.65,4.464v9.333h-6.171V271.395H550.6v3.3h.07A5.683,5.683,0,0,1,556.332,271.03Z" transform="translate(-279.569 -264.311)"/><path class="a" d="M510.774,286.78c-1.374,0-2.572-.617-2.572-2.142,0-1.492,1.159-2.072,2.538-2.4,1.345-.366,2.942-.473,3.815-1.016C514.7,285.108,513.718,286.78,510.774,286.78Zm9.734-5.171v-4.636c0-5.338-4.323-6.314-8.791-6.314a12.454,12.454,0,0,0-5.987,1.3,5.8,5.8,0,0,0-2.94,5.048h5.771a2.757,2.757,0,0,1,3.085-2.358c1.277,0,2.979.543,2.979,1.959,0,1.163-.58,1.526-1.632,1.746-4.284.87-10.965.394-10.965,6.533,0,3.885,2.835,5.7,6.421,5.7a8.518,8.518,0,0,0,6.213-2.32,7.263,7.263,0,0,0,.364,1.779h5.483v-8.439Z" transform="translate(-258.059 -264.124)"/><path class="a" d="M469.754,285.868c-2.794,0-3.74-2.142-3.74-5.441,0-3.886,2.111-5.05,3.778-5.05,2.725,0,3.665,2.65,3.665,5.05C473.457,283,472.516,285.868,469.754,285.868Zm1.456-15.208a6.023,6.023,0,0,0-5.2,2.72h-.073v-2.172h-5.878v25.157h6.17V288.01h.074a6.309,6.309,0,0,0,5.373,2.579c5.34,0,7.947-4.645,7.947-9.543C479.627,275.736,477.127,270.66,471.21,270.66Z" transform="translate(-236.86 -264.124)"/><path class="a" d="M426.715,285.868c-2.8,0-3.74-2.142-3.74-5.441,0-3.886,2.1-5.05,3.776-5.05,2.724,0,3.67,2.65,3.67,5.05C430.421,283,429.474,285.868,426.715,285.868Zm1.447-15.208a6.014,6.014,0,0,0-5.188,2.72H422.9v-2.172h-5.88v25.157h6.168V288.01h.077a6.309,6.309,0,0,0,5.377,2.579c5.334,0,7.945-4.645,7.945-9.543C436.588,275.736,434.083,270.66,428.163,270.66Z" transform="translate(-215.116 -264.124)"/><path class="a" d="M371.625,273.715l2.94-9.073h.069l2.866,9.073Zm-.438-16.264-9.7,25.925h6.942l1.635-4.651H379.1l1.6,4.651h7.038l-9.687-25.925Z" transform="translate(-187.06 -257.451)"/><path class="a" d="M318.7,277.958v12.09H312.53v-9.118c0-2.573.288-5.194-3.085-5.194-2.325,0-3.34,1.965-3.34,4.037v10.275h-6.172V271.208h5.989v2.574H306a7.114,7.114,0,0,1,5.916-3.122C318.192,270.66,318.7,275.233,318.7,277.958Z" transform="translate(-155.967 -264.124)"/><path class="a" d="M267.033,286.78c-1.376,0-2.58-.617-2.58-2.142,0-1.492,1.166-2.072,2.542-2.4,1.346-.366,2.944-.473,3.816-1.016C270.955,285.108,269.978,286.78,267.033,286.78Zm9.733-9.806c0-5.338-4.317-6.314-8.787-6.314a12.443,12.443,0,0,0-5.988,1.3,5.794,5.794,0,0,0-2.942,5.048h5.773a2.759,2.759,0,0,1,3.086-2.358c1.269,0,2.977.543,2.977,1.959,0,1.163-.582,1.526-1.638,1.746-4.279.87-10.958.394-10.958,6.533,0,3.885,2.83,5.7,6.419,5.7a8.5,8.5,0,0,0,6.208-2.32,7.788,7.788,0,0,0,.365,1.779h5.484V276.974Z" transform="translate(-134.93 -264.124)"/><path class="a" d="M230.059,282.639h5.994c-.551,5.042-4.465,7.949-9.478,7.949-5.667,0-9.874-3.885-9.874-9.658,0-5.987,3.814-10.271,9.874-10.271,4.683,0,8.858,2.468,9.3,7.443h-5.994a2.905,2.905,0,0,0-3.012-2.727c-3.453,0-3.994,2.942-3.994,5.554,0,2.435,1.052,4.937,3.664,4.937C228.681,285.868,229.773,284.638,230.059,282.639Z" transform="translate(-113.921 -264.124)"/><path class="a" d="M200.913,257.451h6.174v4.717h-6.174Z" transform="translate(-105.945 -257.451)"/><path class="a" d="M200.913,271.767h6.174v18.841h-6.174Z" transform="translate(-105.945 -264.683)"/><path class="a" d="M182.6,271.03a6.7,6.7,0,0,1,1.452.144V276.8a8.554,8.554,0,0,0-2.36-.361,4.33,4.33,0,0,0-4.642,4.464v9.333h-6.174V271.395h5.986v3.3h.073A5.677,5.677,0,0,1,182.6,271.03Z" transform="translate(-90.772 -264.311)"/><path class="a" d="M133.116,278.685c.359-2.292,1.818-3.85,3.993-3.85a3.819,3.819,0,0,1,3.668,3.85Zm3.993-8.025a9.89,9.89,0,0,0-10.169,9.91c0,6.314,4.174,10.018,10.314,10.018,4.213,0,8.24-1.892,9.362-6.244h-5.771a3.677,3.677,0,0,1-3.519,2.069c-2.611,0-4.1-1.705-4.21-4.284h13.831C147.235,275.736,143.859,270.66,137.109,270.66Z" transform="translate(-68.576 -264.124)"/><path class="a" d="M93.5,278.793v11.256H87.324V278.97c0-2.027-.977-3.234-2.575-3.234-2.653,0-2.908,2.039-2.908,5.09v9.222H75.667V279.334c0-2.214-.645-3.6-2.32-3.6-2.213,0-3.159,1.276-3.159,5.126v9.186H64.017V271.208h5.99v2.574h.073a6.291,6.291,0,0,1,5.41-3.122c2.363,0,4.47.762,5.478,3.045a6.911,6.911,0,0,1,5.882-3.045C92.842,270.66,93.5,275.2,93.5,278.793Z" transform="translate(-36.789 -264.124)"/><path class="a" d="M19.121,273.715l2.943-9.073h.072L25,273.715Zm-.431-16.264-9.7,25.925h6.932l1.636-4.651H26.6l1.592,4.651h7.04l-9.686-25.925Z" transform="translate(-8.993 -257.451)"/></svg>