<svg xmlns="http://www.w3.org/2000/svg" width="93.729" height="51.005" viewBox="0 0 93.729 51.005"><defs><style>.a{fill:#c7c7c7;}.b{fill:#fff;}.c{fill:#afafaf;}</style></defs><path class="a" d="M484.885,186.148a14.464,14.464,0,0,1,5.92,6.077,12.461,12.461,0,0,0,4.89-9.295c.016-.156.016-.328.016-.5,0-2.906-1.531-6.764-3.7-10.4-3.374-4.171-6.53-7.326-6.53-7.326-12.232,12.575-5.171,18.761-.594,21.448" transform="translate(-406.31 -164.7)"/><path class="b" d="M538.378,226.559c0-4.749-4.155-10.279-8.014-15.059,2.3,3.858,3.874,7.967,3.671,10.919a12.378,12.378,0,0,1-4.889,9.279c2.093,4.468.187,8.857-5.046,9,.063,0,.3.016.422.016,7.42,0,13.856-6.545,13.856-14.153" transform="translate(-444.65 -204.189)"/><path class="c" d="M440.6,329.4a14.617,14.617,0,0,0,13.044,10.779h.031c3.812-.109,5.858-2.484,5.858-5.5a8.28,8.28,0,0,0-.828-3.5,12.992,12.992,0,0,1-7.857,2.546c-.312,0-.64-.016-.969-.031A13.064,13.064,0,0,1,440.6,329.4Z" transform="translate(-374.193 -303.671)"/><path class="b" d="M105.118,381.534a3.881,3.881,0,0,1-4.218-4.061c0-3.109,2.109-4.608,6.436-4.608.2,0,.687.031,1.078.047h.094V372.8c0-.156-.031-.484-.047-.625-.187-1.078-.906-1.531-2.406-1.531a17.618,17.618,0,0,0-3.843.516,5.319,5.319,0,0,1-.172-1.3,4.566,4.566,0,0,1,.125-1.125,16.8,16.8,0,0,1,4.483-.64c3.312,0,5.139,1.64,5.139,4.64v4.983c0,.515,0,1.062.016,1.64,0,.625.016,1.265.016,1.937a8.676,8.676,0,0,1-1.406.109,10.1,10.1,0,0,1-1.422-.109c-.047-.328-.094-.828-.109-1.078v-.094l-.031.031a5.634,5.634,0,0,1-3.733,1.375m2.281-6.452c-2.046,0-3.234.781-3.234,2.14a1.7,1.7,0,0,0,1.875,1.765c.906-.016,2.624-.25,2.5-3.843h-.094a8.729,8.729,0,0,0-1.047-.062" transform="translate(-87.559 -336.326)"/><path class="b" d="M21.786,361.074c-1.734,0-3.421-.047-5.186-.141V344.141c1.484-.094,3.374-.141,4.593-.141a8.3,8.3,0,0,1,4.5.968A3.619,3.619,0,0,1,27.3,348.28a3.44,3.44,0,0,1-2.2,3.437l-.266.109.281.062a4.062,4.062,0,0,1,3.374,4.015,4.548,4.548,0,0,1-1.875,4.03,8.57,8.57,0,0,1-4.827,1.14m-1.8-2.843h.094c.453.016,1.172.047,1.656.047,2.39,0,3.405-.719,3.405-2.421,0-1.765-.89-2.406-3.3-2.406H19.99Zm1.453-11.466c-.375,0-.812.016-1.359.047H19.99v4.015h1.5c1.75,0,2.5-.64,2.5-2.156,0-1.687-1.359-1.906-2.546-1.906" transform="translate(-16.428 -315.991)"/><path class="b" d="M182.9,387.289V368.45a10.706,10.706,0,0,1,1.5-.109,7.636,7.636,0,0,1,1.265.109l.141,1.2.141-.125a5.6,5.6,0,0,1,3.546-1.328,4.561,4.561,0,0,1,3.858,1.859,7.38,7.38,0,0,1,1.234,4.358,8.056,8.056,0,0,1-1.468,4.936,5.33,5.33,0,0,1-4.39,2.031,10.269,10.269,0,0,1-2.421-.3l-.125-.031V387.3a11.7,11.7,0,0,1-3.28-.016m5.858-16.48a3.979,3.979,0,0,0-2.562.953l-.031.031v6.78l.063.016a8.6,8.6,0,0,0,2.078.25c1.875,0,2.906-1.484,2.906-4.171,0-2.437-.89-3.858-2.453-3.858" transform="translate(-156.75 -336.411)"/><path class="b" d="M272.989,381.534c-4.124,0-6.389-2.328-6.389-6.577a7.161,7.161,0,0,1,1.656-5.014,6.371,6.371,0,0,1,4.889-1.843,8.124,8.124,0,0,1,3.2.625,3.876,3.876,0,0,1,.078.937,5.471,5.471,0,0,1-.219,1.562,8.537,8.537,0,0,0-2.874-.5c-1.265,0-3.374.547-3.374,4.171,0,2.578,1.2,4,3.405,4a9.477,9.477,0,0,0,2.937-.453,7.039,7.039,0,0,1,.187,1.64c0,.312,0,.562-.016.765a8.767,8.767,0,0,1-3.484.687" transform="translate(-227.375 -336.326)"/><path class="b" d="M342.092,381.619c-3.812,0-6.092-2.5-6.092-6.67a7.185,7.185,0,0,1,1.64-4.968,5.787,5.787,0,0,1,4.452-1.781c3.812,0,6.092,2.515,6.092,6.733,0,4.171-2.281,6.686-6.092,6.686m0-10.9c-1.828,0-2.718,1.375-2.718,4.2,0,2.812.89,4.171,2.718,4.171s2.718-1.359,2.718-4.171c.016-2.827-.875-4.2-2.718-4.2" transform="translate(-285.934 -336.411)"/><path class="b" d="M15.5,195.116c.062-.328.109-.672.172-1a5.116,5.116,0,0,1,2.2-3.624,5.759,5.759,0,0,1,2.7-.875,7.6,7.6,0,0,1,3.78.484,4.809,4.809,0,0,1,2.859,3.718,10.681,10.681,0,0,1,.156,1.734c.031,1.062.016,2.14,0,3.2,0,.344.125.453.453.453,2.109-.016,4.233,0,6.342,0H44.509a3.657,3.657,0,0,0,.594-.047,1.249,1.249,0,0,0,1.218-1.2,9.339,9.339,0,0,0-.2-3.484,2.72,2.72,0,0,0-2.859-2.218H32.5a.853.853,0,0,1-.281-.016c-.172-.047-.25-.156-.125-.312.125-.187.281-.359.422-.531,1.468-1.75,2.921-3.515,4.39-5.264a2.057,2.057,0,0,0,.391-.594.966.966,0,0,1,1.047-.64h2.578a13.985,13.985,0,0,1-3.015,4.749c.219.016.344.016.469.016,1.453,0,2.906-.031,4.358.016a8.916,8.916,0,0,1,2.859.406,5.657,5.657,0,0,1,3.812,4.436,9.853,9.853,0,0,1-.047,4.624,2.283,2.283,0,0,0,.344.047c2.109,0,4.2.016,6.311,0,1.859-.016,2.765-.937,3.093-2.859a8.119,8.119,0,0,0,.078-1.375q.023-2.367,0-4.733c0-.266.047-.406.344-.437a13.554,13.554,0,0,1,2.64.016c.219.016.3.125.3.344-.016,1.75.062,3.515-.031,5.264a6.479,6.479,0,0,1-2.3,5.014,5.985,5.985,0,0,1-3.156,1.234c-.64.062-1.3.078-1.937.078H27.9c-.328,0-.531.016-.562.437a6.175,6.175,0,0,1-.765,2.562,5.06,5.06,0,0,1-3.593,2.531,9.014,9.014,0,0,1-4.811-.328.534.534,0,0,1-.437-.656c.062-.625.109-1.265.172-1.89.672.125,1.25.266,1.843.344a5.6,5.6,0,0,0,2.218-.094,2.945,2.945,0,0,0,2.015-2.89c-.125-.016-.234-.016-.359-.031-1.062-.031-2.124-.016-3.187-.078a4.946,4.946,0,0,1-4.749-4.374c-.047-.328-.109-.672-.172-1m8.514.594h0c0-.7,0-1.406-.016-2.093,0-.156-.047-.328-.062-.484a2.1,2.1,0,0,0-1.562-2.046,3.818,3.818,0,0,0-1.187-.094,2.114,2.114,0,0,0-2.187,2,8.957,8.957,0,0,0-.109.906,6.892,6.892,0,0,0,.312,2.874,1.793,1.793,0,0,0,1.671,1.234c.922.062,1.859.047,2.8.062.281.016.359-.109.359-.375-.031-.687-.016-1.343-.016-1.984" transform="translate(-15.5 -181.744)"/><path class="b" d="M337.079,197.207v-4.671c0-.484,0-.5.469-.5q1.125-.023,2.249,0c.515,0,.515.016.515.547,0,2.687-.016,5.358.016,8.045a13.779,13.779,0,0,0,.266,2.531c.469,2.093,2.359,2.312,3.812,1.75a2.456,2.456,0,0,0,1.39-2.015,8.068,8.068,0,0,0,.156-1.625c.016-1.7.016-3.39,0-5.093,0-.3.047-.453.391-.453q1.289.023,2.577,0c.234,0,.312.094.312.312,0,1.906.047,3.827-.016,5.733a6.1,6.1,0,0,1-1.953,4.577,5.636,5.636,0,0,1-3.187,1.312,7.588,7.588,0,0,1-2.906-.2,5.277,5.277,0,0,1-3.921-4.436,10.848,10.848,0,0,1-.156-2.015c-.031-1.265-.016-2.531-.016-3.8" transform="translate(-286.841 -187.757)"/><path class="b" d="M364.3,307.881a1.706,1.706,0,0,1,1.781-1.781,1.755,1.755,0,0,1,1.781,1.8,1.787,1.787,0,0,1-1.8,1.8,1.755,1.755,0,0,1-1.765-1.812" transform="translate(-309.813 -284.011)"/><path class="b" d="M253.5,306.068a1.789,1.789,0,1,1,0,3.577,1.748,1.748,0,0,1-1.8-1.8,1.712,1.712,0,0,1,1.8-1.781" transform="translate(-214.802 -283.979)"/></svg>