<svg xmlns="http://www.w3.org/2000/svg" width="157.448" height="63.295" viewBox="0 0 157.448 63.295"><defs><style>.a,.d{fill:#fff;}.a,.b,.c{isolation:isolate;}.b{fill:#bfbfbf;}.c{fill:#bababa;}</style></defs><path class="a" d="M646.929,538.986a16.792,16.792,0,0,1-12.162,2.03c.009.236.014.473.014.714a17.111,17.111,0,1,1-13.275-16.686c0-.144,0-.287,0-.436a16.683,16.683,0,0,1,4.246-11.147,29.4,29.4,0,1,0,21.312,28.269Q647.059,540.339,646.929,538.986Z" transform="translate(-588.26 -507.834)"/><path class="b" d="M673.251,555.732A16.784,16.784,0,0,1,659.99,539.76,17.128,17.128,0,0,1,673.251,555.732Z" transform="translate(-626.744 -522.551)"/><path class="a" d="M685.407,540.295a16.792,16.792,0,0,1-12.162,2.03,17.127,17.127,0,0,0-13.261-15.972c0-.144,0-.287,0-.436a16.682,16.682,0,0,1,4.246-11.147A29.407,29.407,0,0,1,685.407,540.295Z" transform="translate(-626.738 -509.143)"/><path class="c" d="M698.447,519.4a16.762,16.762,0,0,1-8.125,14.378,29.407,29.407,0,0,0-21.182-25.525A16.773,16.773,0,0,1,698.447,519.4Z" transform="translate(-631.652 -502.63)"/><g transform="translate(73.835 27.151)"><path class="d" d="M758.537,569.292v-8.083h3.217v20.275h-2.974v-2a5.123,5.123,0,0,1-4.73,2.325,5.846,5.846,0,0,1-4.744-2.095,8.739,8.739,0,0,1,0-10.475,5.832,5.832,0,0,1,4.744-2.108A5,5,0,0,1,758.537,569.292Zm.135,5.19a4.872,4.872,0,0,0-1.068-3.244,3.883,3.883,0,0,0-5.745,0,5.346,5.346,0,0,0,0,6.448,3.869,3.869,0,0,0,5.745.013A4.831,4.831,0,0,0,758.672,574.482Z" transform="translate(-747.561 -561.209)"/><path class="d" d="M798.856,580.28v8.056h-3.217v-8.407q0-3.189-2.649-3.19a2.963,2.963,0,0,0-2.284.919,3.553,3.553,0,0,0-.852,2.514v8.164h-3.217v-14.03h2.974v1.865a4.1,4.1,0,0,1,1.568-1.568,5.089,5.089,0,0,1,2.622-.622,4.51,4.51,0,0,1,4.217,2.217,5.8,5.8,0,0,1,4.758-2.217,4.741,4.741,0,0,1,3.785,1.527,5.912,5.912,0,0,1,1.324,4.014v8.813h-3.217v-8.407q0-3.189-2.649-3.19a2.975,2.975,0,0,0-2.311.933A3.728,3.728,0,0,0,798.856,580.28Z" transform="translate(-768.525 -568.062)"/><path class="d" d="M838.194,584.417l3.029-.487a2.014,2.014,0,0,0,.851,1.514,3.614,3.614,0,0,0,2.177.568,3.557,3.557,0,0,0,1.919-.433,1.325,1.325,0,0,0,.676-1.164,1.274,1.274,0,0,0-.824-1.2,8.951,8.951,0,0,0-1.974-.639l-2.325-.5a3.5,3.5,0,0,1-2.825-3.685,3.941,3.941,0,0,1,1.528-3.123,6.073,6.073,0,0,1,4.041-1.284,5.4,5.4,0,0,1,3.785,1.216,5.187,5.187,0,0,1,1.649,2.866l-3,.541a2.268,2.268,0,0,0-.744-1.419,2.526,2.526,0,0,0-1.771-.582,3.111,3.111,0,0,0-1.784.432,1.372,1.372,0,0,0-.622,1.191,1.167,1.167,0,0,0,.835,1.073,10.99,10.99,0,0,0,1.979.624l2.325.526a3.573,3.573,0,0,1,2,1.242,4.2,4.2,0,0,1-.714,5.726,6.706,6.706,0,0,1-4.338,1.244,6.371,6.371,0,0,1-4.136-1.176A4.793,4.793,0,0,1,838.194,584.417Z" transform="translate(-796.186 -568.062)"/><path class="d" d="M866.833,584.417l3.028-.487a2.014,2.014,0,0,0,.851,1.514,3.614,3.614,0,0,0,2.176.568,3.559,3.559,0,0,0,1.919-.433,1.325,1.325,0,0,0,.676-1.164,1.275,1.275,0,0,0-.824-1.2,8.966,8.966,0,0,0-1.974-.639l-2.325-.5a3.5,3.5,0,0,1-2.825-3.685,3.939,3.939,0,0,1,1.528-3.123,6.072,6.072,0,0,1,4.041-1.284,5.4,5.4,0,0,1,3.785,1.216,5.185,5.185,0,0,1,1.649,2.866l-3,.541a2.265,2.265,0,0,0-.743-1.419,2.527,2.527,0,0,0-1.771-.582,3.11,3.11,0,0,0-1.784.432,1.371,1.371,0,0,0-.621,1.191,1.167,1.167,0,0,0,.835,1.073,10.993,10.993,0,0,0,1.978.624l2.325.526a3.573,3.573,0,0,1,2,1.242,4.2,4.2,0,0,1-.714,5.726,6.709,6.709,0,0,1-4.339,1.244,6.372,6.372,0,0,1-4.136-1.176A4.794,4.794,0,0,1,866.833,584.417Z" transform="translate(-811.551 -568.062)"/><path class="d" d="M903.792,588.661a6.9,6.9,0,0,1-5.258-2.135,7.714,7.714,0,0,1,0-10.394,7.539,7.539,0,0,1,10.543,0,7.712,7.712,0,0,1,0,10.394A6.929,6.929,0,0,1,903.792,588.661Zm-4.055-7.326a4.589,4.589,0,0,0,1.149,3.244,4.049,4.049,0,0,0,5.839,0,5.19,5.19,0,0,0,0-6.515,4.049,4.049,0,0,0-5.839,0A4.629,4.629,0,0,0,899.738,581.335Z" transform="translate(-827.479 -568.062)"/></g><g transform="translate(125.651 19.315)"><path class="d" d="M862.471,545.795a1.847,1.847,0,0,0-1.461.6,2.354,2.354,0,0,0-.532,1.619,2.434,2.434,0,0,0,.54,1.645,1.818,1.818,0,0,0,1.453.628,2.081,2.081,0,0,0,1.334-.417,1.7,1.7,0,0,0,.623-1.172H862.76v-.965h2.694v3.405H864.5v-.9a2.053,2.053,0,0,1-.838.733,2.782,2.782,0,0,1-1.251.267,2.9,2.9,0,0,1-2.2-.9,3.579,3.579,0,0,1,.018-4.665,2.981,2.981,0,0,1,2.242-.9,3.145,3.145,0,0,1,1.817.527,2.712,2.712,0,0,1,1.071,1.448l-1.027.36a1.759,1.759,0,0,0-.676-.97A2.007,2.007,0,0,0,862.471,545.795Z" transform="translate(-859.355 -544.557)"/><path class="d" d="M876.922,553.216a2.24,2.24,0,0,1-1.707-.693,2.5,2.5,0,0,1,0-3.374,2.446,2.446,0,0,1,3.422,0,2.5,2.5,0,0,1,0,3.374A2.249,2.249,0,0,1,876.922,553.216Zm-1.317-2.378a1.492,1.492,0,0,0,.373,1.053,1.315,1.315,0,0,0,1.9,0,1.684,1.684,0,0,0,0-2.115,1.314,1.314,0,0,0-1.9,0A1.5,1.5,0,0,0,875.6,550.838Z" transform="translate(-867.513 -546.528)"/><path class="d" d="M888.566,553.216a2.24,2.24,0,0,1-1.708-.693,2.5,2.5,0,0,1,0-3.374,2.447,2.447,0,0,1,3.423,0,2.5,2.5,0,0,1,0,3.374A2.249,2.249,0,0,1,888.566,553.216Zm-1.317-2.378a1.492,1.492,0,0,0,.373,1.053,1.315,1.315,0,0,0,1.9,0,1.685,1.685,0,0,0,0-2.115,1.314,1.314,0,0,0-1.9,0A1.5,1.5,0,0,0,887.249,550.838Z" transform="translate(-873.76 -546.528)"/><path class="d" d="M899.9,551.2a2.16,2.16,0,0,1-.764-.149.465.465,0,0,0-.176.114.33.33,0,0,0-.105.254q0,.3.316.3h1.492a1.458,1.458,0,0,1,1.114.377,1.386,1.386,0,0,1,.351.983,1.29,1.29,0,0,1-.553,1.04,2.588,2.588,0,0,1-1.624.434,3.083,3.083,0,0,1-1.6-.316,1.082,1.082,0,0,1,0-1.816.931.931,0,0,1-.377-.807,1.027,1.027,0,0,1,.544-.948,1.655,1.655,0,0,1,.061-2.308,1.847,1.847,0,0,1,1.326-.474,2.1,2.1,0,0,1,.983.228,1.127,1.127,0,0,1,.443-.526,1.254,1.254,0,0,1,.689-.193l.255.018v.9a1.334,1.334,0,0,0-.193-.009.515.515,0,0,0-.356.114.4.4,0,0,0-.127.316l.018.193a1.814,1.814,0,0,1,.114.614,1.564,1.564,0,0,1-.5,1.185A1.846,1.846,0,0,1,899.9,551.2Zm.737,1.448h-1.606a.525.525,0,0,0-.254.465.456.456,0,0,0,.254.439,2.165,2.165,0,0,0,.9.131q1.238,0,1.238-.6a.4.4,0,0,0-.141-.325A.611.611,0,0,0,900.633,552.647Zm-1.373-3.673a.8.8,0,0,0,0,1.132,1.049,1.049,0,0,0,1.272,0,.8.8,0,0,0,0-1.132,1.048,1.048,0,0,0-1.272,0Z" transform="translate(-880.008 -545.959)"/><path class="d" d="M909.971,550.886h-1.044V544.3h1.044Z" transform="translate(-885.951 -544.303)"/><path class="d" d="M916.669,551.618l.94.246a2.066,2.066,0,0,1-.795.987,2.254,2.254,0,0,1-1.277.364,2.141,2.141,0,0,1-1.646-.676,2.618,2.618,0,0,1,0-3.405,2.289,2.289,0,0,1,3.252-.013,2.4,2.4,0,0,1,.619,1.689l-.009.325h-3.467a1.366,1.366,0,0,0,.395.864,1.214,1.214,0,0,0,.878.321A1.1,1.1,0,0,0,916.669,551.618Zm-1.141-2.317a1.178,1.178,0,0,0-.816.29,1.275,1.275,0,0,0-.4.772h2.422a1.255,1.255,0,0,0-.386-.772A1.161,1.161,0,0,0,915.528,549.3Z" transform="translate(-888.277 -546.528)"/></g></svg>