<svg xmlns="http://www.w3.org/2000/svg" width="204.64" height="50.253" viewBox="0 0 204.64 50.253"><defs><style>.a{fill:#fff;}</style></defs><path class="a" d="M560.53,593.306a58.479,58.479,0,0,1,35.681-15.985c14.253-1.153,27.191,3.912,39.965,9.614,6.634,2.961,13.279,5.984,20.265,8.033a71.488,71.488,0,0,0,20.276,2.873,74.008,74.008,0,0,0,30.118-6.489c3.126-1.4,5.94-3.413,9.019-4.836,1-.463.931-.341,1.1.836a13.221,13.221,0,0,0,.518,2.342,6,6,0,0,0,1.443,2.5,4.586,4.586,0,0,0,4.4.764c6.3-1.611,11.388-7.836,15.145-12.735l-.778.324c-.558,6.509,3.761,13.471,11.066,10.561,1.668-.665,3.051-3.955,3.9-5.423a44.764,44.764,0,0,0,2.181-4.167,14.664,14.664,0,0,0,.566-1.921c-6.911,2.753-11.55-3.54-11-9.973.064-.747-.726.255-.778.324-3.382,4.41-8.108,10.217-13.85,11.545-4.56,1.055-5.986-3.036-6.277-6.871q.084-.5-.306-.177a73.285,73.285,0,0,1-63.372,7.976c-10.763-3.644-20.747-9.218-31.471-12.961-10.253-3.578-20.933-4.841-31.659-2.817a59.446,59.446,0,0,0-30.049,15.388c-1.918,1.842-3.239,4.533-4.49,6.848a18.936,18.936,0,0,0-1.721,3.592c-.035.125-.451,1.374.109.836Z" transform="translate(-560.24 -565.675)"/><g transform="translate(123.012 39.738)"><path class="a" d="M852.054,665.879v-7.364l-5.347,7.364h-1.628l-5.362-7.349v7.349h-1.837V655.364h1.852l6.243,8.588,6.214-8.588h1.7v10.515Z" transform="translate(-837.879 -655.364)"/><path class="a" d="M879.074,665.879V655.364h10.814v1.553h-8.827v2.628h8.379V661.1h-8.379v3.226h8.827v1.553Z" transform="translate(-860.822 -655.364)"/><path class="a" d="M920.915,665.879,909.7,657.694v8.185h-1.732V655.364h1.717l10.47,7.812v-7.812h1.733v10.515Z" transform="translate(-876.912 -655.364)"/><path class="a" d="M944.608,665.879V655.364h1.987v10.515Z" transform="translate(-897.32 -655.364)"/><path class="a" d="M967.267,665.879l-11.217-8.185v8.185h-1.733V655.364h1.718l10.471,7.812v-7.812h1.732v10.515Z" transform="translate(-902.727 -655.364)"/><path class="a" d="M990.22,665.879v-1.344l10.635-7.468H990.22v-1.7h14.129v1.344l-10.679,7.468h10.679v1.7Z" transform="translate(-922.723 -655.364)"/></g><rect class="a" width="4.535" height="1.772" transform="matrix(0.909, -0.416, 0.416, 0.909, 147.268, 36.478)"/></svg>