<svg xmlns="http://www.w3.org/2000/svg" width="218.914" height="33.864" viewBox="0 0 218.914 33.864"><defs><style>.a{fill:#fff;}</style></defs><rect class="a" width="4.293" height="33.861"/><path class="a" d="M928.8,328.579V336.2l-4.287-2.361v-5.264Z" transform="translate(-918.001 -328.577)"/><path class="a" d="M924.512,333.3l4.287,2.374v23.131h-4.287Z" transform="translate(-918.001 -324.945)"/><path class="a" d="M932.48,328.579v22.778l-4.287-2.374v-20.4Z" transform="translate(-915.17 -328.577)"/><path class="a" d="M930.609,342.092l.014-.014v.041Z" transform="translate(-913.313 -318.199)"/><path class="a" d="M928.193,341.864l4.287,2.374v7.991h-4.287Z" transform="translate(-915.17 -318.364)"/><path class="a" d="M936.162,328.579v20.282l-4.287,2.374V328.579Z" transform="translate(-912.34 -328.577)"/><path class="a" d="M931.875,344.163l4.287-2.361v10.473h-4.287Z" transform="translate(-912.34 -318.411)"/><path class="a" d="M939.844,328.579v5.44l-4.287,2.361v-7.8Z" transform="translate(-909.51 -328.577)"/><path class="a" d="M935.557,335.772l4.287-2.36v25.315h-4.287Z" transform="translate(-909.51 -324.862)"/><rect class="a" width="4.293" height="33.861" transform="translate(32.555)"/><g transform="translate(46.55 9.242)"><path class="a" d="M954.554,349.183c-5.39,0-7.406-2.206-7.406-5.982h3.394c0,2.291,1.146,3.012,4.116,3.012,2.186,0,2.908-.508,2.908-1.316,0-1.081-1.827-1.569-4.012-2.312-3.161-1.061-5.727-1.909-5.727-4.838,0-2.545,2.016-3.944,5.876-3.944,4.583,0,6.64,2.333,6.64,5.3h-3.394c0-1.824-1.4-2.333-3.246-2.333-1.526,0-2.482.34-2.482,1.1,0,.679.361.932,2.758,1.739,2.759.934,6.981,2.121,6.981,5.239C960.961,347.421,959.156,349.183,954.554,349.183Z" transform="translate(-947.148 -333.803)"/><path class="a" d="M962.349,336.893v9.017h3.394v2.968H955.56V345.91h3.394v-9.017H955.56v-2.97h10.183v2.97Z" transform="translate(-940.681 -333.711)"/><path class="a" d="M962.4,347.309V333.923h3.394v12.2l7.275-.21v2.968l-8.846.212A1.613,1.613,0,0,1,962.4,347.309Z" transform="translate(-935.422 -333.711)"/><path class="a" d="M970.792,333.923l3.946,14.108h.849l3.967-14.108h3.437l-4.326,14.955h-7l-4.307-14.955Z" transform="translate(-931.611 -333.711)"/><path class="a" d="M976.921,333.923h10.669v2.97h-7.277v3.012h6.216v2.97h-6.216v3.035h7.277v2.968H976.921Z" transform="translate(-924.259 -333.711)"/><path class="a" d="M984.037,333.923h5.791c3.564,0,6.661.828,6.661,4.178,0,2.462-1.993,3.141-3.8,3.354v.847h2.186a1.622,1.622,0,0,1,1.8,1.8v4.772h-3.393v-5.26h-5.855v5.26h-3.394Zm5.791,6.725c2.015,0,3.267,0,3.267-1.868,0-1.887-1.252-1.887-3.267-1.887h-2.4v3.755Z" transform="translate(-918.788 -333.711)"/><path class="a" d="M1003.032,349.183c-5.39,0-7.4-2.206-7.4-5.982h3.394c0,2.291,1.146,3.012,4.116,3.012,2.185,0,2.906-.508,2.906-1.316,0-1.081-1.825-1.569-4.01-2.312-3.161-1.061-5.729-1.909-5.729-4.838,0-2.545,2.017-3.944,5.878-3.944,4.581,0,6.64,2.333,6.64,5.3h-3.394c0-1.824-1.4-2.333-3.246-2.333-1.528,0-2.483.34-2.483,1.1,0,.679.361.932,2.759,1.739,2.758.934,6.98,2.121,6.98,5.239C1009.439,347.421,1007.637,349.183,1003.032,349.183Z" transform="translate(-909.877 -333.803)"/><path class="a" d="M1011.72,333.8c4.179,0,6.937,2.291,7.383,5.982h-3.394a3.649,3.649,0,0,0-3.946-3.012c-2.609,0-4.326,1.634-4.326,4.71,0,3.1,1.718,4.73,4.326,4.73a3.665,3.665,0,0,0,3.946-3.033h3.394c-.446,3.711-3.2,6-7.383,6a7.69,7.69,0,0,1,0-15.38Z" transform="translate(-903.409 -333.803)"/><path class="a" d="M1013.64,333.923h5.793c3.562,0,6.66.828,6.66,4.178,0,2.462-1.993,3.141-3.8,3.354v.847h2.184a1.624,1.624,0,0,1,1.8,1.8v4.772h-3.393v-5.26h-5.857v5.26h-3.394Zm5.793,6.725c2.013,0,3.265,0,3.265-1.868,0-1.887-1.252-1.887-3.265-1.887h-2.4v3.755Z" transform="translate(-896.029 -333.711)"/><path class="a" d="M1021.993,333.923h10.669v2.97h-7.275v3.012h6.214v2.97h-6.214v3.035h7.275v2.968h-10.669Z" transform="translate(-889.607 -333.711)"/><path class="a" d="M1029.108,333.923h10.669v2.97H1032.5v3.012h6.216v2.97H1032.5v3.035h7.275v2.968h-10.669Z" transform="translate(-884.137 -333.711)"/><path class="a" d="M1036.224,333.923h6.682l4.518,14.108h.851l-.639-2.121V333.923h3.394v14.955h-6.681l-4.519-14.106h-.849l.637,2.121v11.985h-3.394Z" transform="translate(-878.666 -333.711)"/></g></svg>