<svg xmlns="http://www.w3.org/2000/svg" width="142.727" height="54.879" viewBox="0 0 142.727 54.879"><defs><style>.a{fill:#fff;}</style></defs><g transform="translate(53.623)"><g transform="translate(22.786 10.999)"><path class="a" d="M1038.617,425.2v9.217h-.005v-9.566C1038.615,424.969,1038.617,425.085,1038.617,425.2Z" transform="translate(-1038.612 -424.854)"/></g><path class="a" d="M974.892,394.1v1.213a3.555,3.555,0,1,0-7.111,0v-.865a4.277,4.277,0,0,0-8.554,0v22.76a2.775,2.775,0,0,1-.084-.681v-5.468a3.474,3.474,0,0,0-2.177-3.22,2.554,2.554,0,0,0-.262-.092,1.288,1.288,0,0,0-.165-.045,3.423,3.423,0,0,0-.87-.11h0a2.993,2.993,0,0,0-.349.018c-.06.005-.118.011-.173.021s-.118.018-.176.032-.1.021-.152.034c-.092.024-.186.05-.278.081a3.476,3.476,0,0,0-2.332,3.28v5.759a2.489,2.489,0,0,1-.1.7V394.445a11.4,11.4,0,0,1,22.786-.348Z" transform="translate(-952.106 -383.098)"/></g><g transform="translate(0 5.618)"><path class="a" d="M890.141,428.822v10.854a10.768,10.768,0,0,1-18.082,7.909,10.744,10.744,0,0,1-7.021,2.861c-.048,0-.093,0-.145-.007s-.093.01-.141.01H811.975a9.722,9.722,0,0,1-6.16-2.207,9.411,9.411,0,0,1-6.057,2.207H785.1v-9.239a4.211,4.211,0,0,0-3.729-4.232,4.133,4.133,0,0,0-4.524,4.112v9.359H752.117a3.554,3.554,0,0,1-3.581-3.237,3.47,3.47,0,0,1,3.464-3.7h17.81a.1.1,0,0,0,.1-.1v-2.094a11.215,11.215,0,0,1,10.723-11.295,11.074,11.074,0,0,1,11.4,11.06v2.376a.052.052,0,0,0,.048.048h7.679a2.5,2.5,0,0,0,2.4-1.8V435.35a3.557,3.557,0,0,1,2.71-3.454l.152-.031c.058-.014.117-.024.175-.034l.172-.021c.114-.011.231-.017.348-.017h0a3.5,3.5,0,0,1,.871.11c.055.014.11.028.165.045.09.028.176.059.262.093a3.553,3.553,0,0,1,2.259,3.309v6.06a2.8,2.8,0,0,0,2.7,2.1h22.5a4.438,4.438,0,0,0,4.463-3.939A4.357,4.357,0,0,0,834.6,434.8H817.828V419.514a3.459,3.459,0,0,1,.176-1.105,3.555,3.555,0,0,1,6.935,1.105v8.354H834.6A11.3,11.3,0,0,1,845.889,439.5a11.055,11.055,0,0,1-.888,4.015h19.755a3.842,3.842,0,0,0,3.836-3.839v-6.181a3.475,3.475,0,0,1,2.779-3.4c.048-.007.1-.021.148-.027s.107-.014.155-.017l.159-.021h.458l.158.021c.052,0,.1.01.152.017s.1.021.151.031a3.465,3.465,0,0,1,2.776,3.4v6.181a3.841,3.841,0,0,0,4.215,3.819,3.745,3.745,0,0,0,2.665-1.529,4.008,4.008,0,0,0,.8-2.407V428.7a3.466,3.466,0,0,1,3.7-3.461A3.549,3.549,0,0,1,890.141,428.822Z" transform="translate(-748.529 -412.92)"/><ellipse class="a" cx="3.49" cy="3.49" rx="3.49" ry="3.49" transform="translate(133.607 2.671) rotate(-22.5)"/><ellipse class="a" cx="3.49" cy="3.49" rx="3.49" ry="3.49" transform="translate(120.006 5.89)"/><path class="a" d="M942.567,559.564a.388.388,0,0,0-.055,0,3.488,3.488,0,0,0,0,6.975.388.388,0,0,0,.055,0,3.49,3.49,0,1,0,0-6.98Z" transform="translate(-888.888 -518.7)"/><circle class="a" cx="3.49" cy="3.49" r="3.49" transform="translate(37.356 44.326) rotate(-45)"/><ellipse class="a" cx="3.49" cy="3.49" rx="3.49" ry="3.49" transform="translate(100.809 0.653)"/><ellipse class="a" cx="3.49" cy="3.49" rx="3.49" ry="3.49" transform="translate(80.158 7.32) rotate(-61.845)"/></g><path class="a" d="M1096.215,520.579l-.665,6.935h-18.46c6.594,0,9.927-6.935,9.927-6.935Z" transform="translate(-990.546 -484.366)"/><path class="a" d="M1232.243,513.8a10.755,10.755,0,0,1-14.738.113,11.479,11.479,0,0,0,3.468-7.909,3.841,3.841,0,0,0,4.215,3.819,3.745,3.745,0,0,0,2.665-1.529Z" transform="translate(-1093.974 -473.629)"/><path class="a" d="M979.326,521.63h-7.155a9.722,9.722,0,0,1-6.161-2.207,9.853,9.853,0,0,0,3.457-6.832,2.8,2.8,0,0,0,2.7,2.1H978.8Z" transform="translate(-908.724 -478.482)"/><g transform="translate(60.303 47.181)"><path class="a" d="M980.014,569.76v-6.908h-2.552v-.633h5.8v.633h-2.542v6.908Z" transform="translate(-977.462 -562.219)"/><path class="a" d="M1001.347,575.4a2.018,2.018,0,0,1-1.287-.39,1.35,1.35,0,0,1-.5-1.128,1.719,1.719,0,0,1,.164-.786,1.143,1.143,0,0,1,.506-.5,3.209,3.209,0,0,1,.7-.269,7.187,7.187,0,0,1,.88-.153,5.253,5.253,0,0,0,1.176-.227.5.5,0,0,0,.29-.512v-.106q0-1.1-1.308-1.1-1.455,0-1.529,1.213H999.8a1.741,1.741,0,0,1,.6-1.276,2.367,2.367,0,0,1,1.571-.464q1.93,0,1.93,1.688v2.964q0,.453.359.475a1.524,1.524,0,0,0,.243-.042h.032v.475a1.085,1.085,0,0,1-.443.084.718.718,0,0,1-.8-.77v-.116h-.032A2.2,2.2,0,0,1,1001.347,575.4Zm.116-.527a1.824,1.824,0,0,0,1.334-.48,1.49,1.49,0,0,0,.49-1.091v-.981a4.433,4.433,0,0,1-1.413.358q-.338.042-.532.085a3.472,3.472,0,0,0-.432.126,1,1,0,0,0-.359.2.986.986,0,0,0-.211.316,1.149,1.149,0,0,0-.09.475Q1000.25,574.874,1001.462,574.874Z" transform="translate(-993.742 -567.734)"/><path class="a" d="M1023.909,575.275v-5.453h.654v.833h.021a2.075,2.075,0,0,1,1.824-.949,1.773,1.773,0,0,1,1.261.448,1.627,1.627,0,0,1,.48,1.25v3.871h-.654v-3.808a1.082,1.082,0,0,0-1.245-1.2,1.721,1.721,0,0,0-1.2.443,1.43,1.43,0,0,0-.49,1.107v3.46Z" transform="translate(-1011.675 -567.734)"/><path class="a" d="M1046.252,575.6v-.559l3.185-4.293v-.032h-2.974v-.57h3.85v.464l-3.249,4.377v.032h3.343v.58Z" transform="translate(-1028.132 -568.059)"/><path class="a" d="M1068.573,575.382a2.314,2.314,0,0,1-1.867-.8,3.448,3.448,0,0,1,.01-4.113,2.251,2.251,0,0,1,1.8-.807,2.371,2.371,0,0,1,1.1.243,1.817,1.817,0,0,1,.733.675,3.221,3.221,0,0,1,.385.944,4.822,4.822,0,0,1,.121,1.113h-4.155a2.576,2.576,0,0,0,.5,1.577,1.637,1.637,0,0,0,1.371.606,1.52,1.52,0,0,0,1.593-1.223h.633a2.264,2.264,0,0,1-.754,1.3A2.217,2.217,0,0,1,1068.573,575.382Zm-1.856-3.259h3.459a2.28,2.28,0,0,0-.438-1.387,1.453,1.453,0,0,0-1.218-.533,1.572,1.572,0,0,0-1.25.527A2.476,2.476,0,0,0,1066.717,572.124Z" transform="translate(-1042.702 -567.704)"/><path class="a" d="M1092.117,575.382a2.315,2.315,0,0,1-1.867-.8,3.448,3.448,0,0,1,.011-4.113,2.252,2.252,0,0,1,1.8-.807,2.374,2.374,0,0,1,1.1.243,1.818,1.818,0,0,1,.733.675,3.234,3.234,0,0,1,.385.944,4.822,4.822,0,0,1,.121,1.113h-4.156a2.578,2.578,0,0,0,.5,1.577,1.637,1.637,0,0,0,1.371.606,1.519,1.519,0,0,0,1.593-1.223h.633a2.265,2.265,0,0,1-.754,1.3A2.217,2.217,0,0,1,1092.117,575.382Zm-1.856-3.259h3.46a2.28,2.28,0,0,0-.438-1.387,1.453,1.453,0,0,0-1.218-.533,1.571,1.571,0,0,0-1.25.527A2.477,2.477,0,0,0,1090.261,572.124Z" transform="translate(-1060.044 -567.704)"/><path class="a" d="M1114.2,575.275v-5.453h.654v.823h.021a1.855,1.855,0,0,1,1.656-.939,1.6,1.6,0,0,1,.907.259,1.368,1.368,0,0,1,.548.733h.021a1.884,1.884,0,0,1,1.751-.991,1.632,1.632,0,0,1,1.181.448,1.656,1.656,0,0,1,.464,1.25v3.871h-.644v-3.818a1.173,1.173,0,0,0-.316-.891,1.16,1.16,0,0,0-.833-.3,1.446,1.446,0,0,0-1.05.417,1.5,1.5,0,0,0-.427,1.123v3.47h-.654v-3.818a1.21,1.21,0,0,0-.3-.891,1.077,1.077,0,0,0-.8-.3,1.491,1.491,0,0,0-1.065.448,1.461,1.461,0,0,0-.464,1.091v3.47Z" transform="translate(-1078.183 -567.734)"/></g></svg>