<svg xmlns="http://www.w3.org/2000/svg" width="71.977" height="56.662" viewBox="0 0 71.977 56.662"><defs><style>.a{fill:#fff;}</style></defs><path class="a" d="M828.031,723.241a2.043,2.043,0,0,0-.276-.708,1.509,1.509,0,0,0-.524-.505,1.586,1.586,0,0,0-.808-.191,1.451,1.451,0,0,0-1.321.7,2.043,2.043,0,0,0-.276.708,4.159,4.159,0,0,0-.08.819,4.015,4.015,0,0,0,.08.808,2.157,2.157,0,0,0,.276.712,1.473,1.473,0,0,0,.517.5,1.562,1.562,0,0,0,.8.188,1.587,1.587,0,0,0,.808-.188,1.434,1.434,0,0,0,.524-.5,2.157,2.157,0,0,0,.276-.712,4.015,4.015,0,0,0,.08-.808A4.159,4.159,0,0,0,828.031,723.241Zm0,0a2.043,2.043,0,0,0-.276-.708,1.509,1.509,0,0,0-.524-.505,1.586,1.586,0,0,0-.808-.191,1.451,1.451,0,0,0-1.321.7,2.043,2.043,0,0,0-.276.708,4.159,4.159,0,0,0-.08.819,4.015,4.015,0,0,0,.08.808,2.157,2.157,0,0,0,.276.712,1.473,1.473,0,0,0,.517.5,1.562,1.562,0,0,0,.8.188,1.587,1.587,0,0,0,.808-.188,1.434,1.434,0,0,0,.524-.5,2.157,2.157,0,0,0,.276-.712,4.015,4.015,0,0,0,.08-.808A4.159,4.159,0,0,0,828.031,723.241Zm0,0a2.043,2.043,0,0,0-.276-.708,1.509,1.509,0,0,0-.524-.505,1.586,1.586,0,0,0-.808-.191,1.451,1.451,0,0,0-1.321.7,2.043,2.043,0,0,0-.276.708,4.159,4.159,0,0,0-.08.819,4.015,4.015,0,0,0,.08.808,2.157,2.157,0,0,0,.276.712,1.473,1.473,0,0,0,.517.5,1.562,1.562,0,0,0,.8.188,1.587,1.587,0,0,0,.808-.188,1.434,1.434,0,0,0,.524-.5,2.157,2.157,0,0,0,.276-.712,4.015,4.015,0,0,0,.08-.808A4.159,4.159,0,0,0,828.031,723.241Zm7.221,16.463a2.041,2.041,0,0,0-.276-.708,1.5,1.5,0,0,0-.521-.505,1.6,1.6,0,0,0-.812-.191,1.451,1.451,0,0,0-1.321.7,2.117,2.117,0,0,0-.272.708,4.159,4.159,0,0,0-.08.819,4.017,4.017,0,0,0,.08.808,2.237,2.237,0,0,0,.272.712,1.473,1.473,0,0,0,.517.5,1.562,1.562,0,0,0,.8.188,1.6,1.6,0,0,0,.812-.188,1.423,1.423,0,0,0,.521-.5,2.153,2.153,0,0,0,.276-.712,4.017,4.017,0,0,0,.08-.808A4.159,4.159,0,0,0,835.252,739.7Zm0,0a2.041,2.041,0,0,0-.276-.708,1.5,1.5,0,0,0-.521-.505,1.6,1.6,0,0,0-.812-.191,1.451,1.451,0,0,0-1.321.7,2.117,2.117,0,0,0-.272.708,4.159,4.159,0,0,0-.08.819,4.017,4.017,0,0,0,.08.808,2.237,2.237,0,0,0,.272.712,1.473,1.473,0,0,0,.517.5,1.562,1.562,0,0,0,.8.188,1.6,1.6,0,0,0,.812-.188,1.423,1.423,0,0,0,.521-.5,2.153,2.153,0,0,0,.276-.712,4.017,4.017,0,0,0,.08-.808A4.159,4.159,0,0,0,835.252,739.7Zm-7.221-16.463a2.043,2.043,0,0,0-.276-.708,1.509,1.509,0,0,0-.524-.505,1.586,1.586,0,0,0-.808-.191,1.451,1.451,0,0,0-1.321.7,2.043,2.043,0,0,0-.276.708,4.159,4.159,0,0,0-.08.819,4.015,4.015,0,0,0,.08.808,2.157,2.157,0,0,0,.276.712,1.473,1.473,0,0,0,.517.5,1.562,1.562,0,0,0,.8.188,1.587,1.587,0,0,0,.808-.188,1.434,1.434,0,0,0,.524-.5,2.157,2.157,0,0,0,.276-.712,4.015,4.015,0,0,0,.08-.808A4.159,4.159,0,0,0,828.031,723.241Zm0,0a2.043,2.043,0,0,0-.276-.708,1.509,1.509,0,0,0-.524-.505,1.586,1.586,0,0,0-.808-.191,1.451,1.451,0,0,0-1.321.7,2.043,2.043,0,0,0-.276.708,4.159,4.159,0,0,0-.08.819,4.015,4.015,0,0,0,.08.808,2.157,2.157,0,0,0,.276.712,1.473,1.473,0,0,0,.517.5,1.562,1.562,0,0,0,.8.188,1.587,1.587,0,0,0,.808-.188,1.434,1.434,0,0,0,.524-.5,2.157,2.157,0,0,0,.276-.712,4.015,4.015,0,0,0,.08-.808A4.159,4.159,0,0,0,828.031,723.241Zm7.221,16.463a2.041,2.041,0,0,0-.276-.708,1.5,1.5,0,0,0-.521-.505,1.6,1.6,0,0,0-.812-.191,1.451,1.451,0,0,0-1.321.7,2.117,2.117,0,0,0-.272.708,4.159,4.159,0,0,0-.08.819,4.017,4.017,0,0,0,.08.808,2.237,2.237,0,0,0,.272.712,1.473,1.473,0,0,0,.517.5,1.562,1.562,0,0,0,.8.188,1.6,1.6,0,0,0,.812-.188,1.423,1.423,0,0,0,.521-.5,2.153,2.153,0,0,0,.276-.712,4.017,4.017,0,0,0,.08-.808A4.159,4.159,0,0,0,835.252,739.7Zm0,0a2.041,2.041,0,0,0-.276-.708,1.5,1.5,0,0,0-.521-.505,1.6,1.6,0,0,0-.812-.191,1.451,1.451,0,0,0-1.321.7,2.117,2.117,0,0,0-.272.708,4.159,4.159,0,0,0-.08.819,4.017,4.017,0,0,0,.08.808,2.237,2.237,0,0,0,.272.712,1.473,1.473,0,0,0,.517.5,1.562,1.562,0,0,0,.8.188,1.6,1.6,0,0,0,.812-.188,1.423,1.423,0,0,0,.521-.5,2.153,2.153,0,0,0,.276-.712,4.017,4.017,0,0,0,.08-.808A4.159,4.159,0,0,0,835.252,739.7Zm-7.221-16.463a2.043,2.043,0,0,0-.276-.708,1.509,1.509,0,0,0-.524-.505,1.586,1.586,0,0,0-.808-.191,1.451,1.451,0,0,0-1.321.7,2.043,2.043,0,0,0-.276.708,4.159,4.159,0,0,0-.08.819,4.015,4.015,0,0,0,.08.808,2.157,2.157,0,0,0,.276.712,1.473,1.473,0,0,0,.517.5,1.562,1.562,0,0,0,.8.188,1.587,1.587,0,0,0,.808-.188,1.434,1.434,0,0,0,.524-.5,2.157,2.157,0,0,0,.276-.712,4.015,4.015,0,0,0,.08-.808A4.159,4.159,0,0,0,828.031,723.241Zm-25.62-14.1V765.8h71.976V709.141Zm28.836,11.447h1.807v1.286h.027a2.293,2.293,0,0,1,.364-.6,2.422,2.422,0,0,1,.521-.467,2.526,2.526,0,0,1,.632-.3,2.228,2.228,0,0,1,.7-.107,1.435,1.435,0,0,1,.413.069v1.769c-.088-.019-.2-.034-.322-.05s-.245-.019-.36-.019a1.989,1.989,0,0,0-.884.176,1.524,1.524,0,0,0-.586.475,1.907,1.907,0,0,0-.314.7,3.878,3.878,0,0,0-.092.869v3.124h-1.9Zm-18.653-2.638,1.512,6.512h.027l1.661-6.512h1.972l1.635,6.593h.027l1.566-6.593h2.064l-2.573,9.567H818.4l-1.619-6.512h-.027l-1.6,6.512h-2.129l-2.534-9.567Zm4.851,26.03-.777-.953a4.09,4.09,0,0,1-1.229.846,3.655,3.655,0,0,1-1.466.279,3.838,3.838,0,0,1-1.214-.187,2.788,2.788,0,0,1-.984-.555,2.638,2.638,0,0,1-.655-.9,2.88,2.88,0,0,1-.241-1.21,2.459,2.459,0,0,1,.172-.934,2.71,2.71,0,0,1,.475-.762,3.644,3.644,0,0,1,.693-.609,5.659,5.659,0,0,1,.8-.471,6.009,6.009,0,0,1-.651-.938,2.2,2.2,0,0,1-.26-1.1,1.929,1.929,0,0,1,.207-.9,2.264,2.264,0,0,1,.555-.693,2.539,2.539,0,0,1,.8-.44,2.822,2.822,0,0,1,.93-.153,3.384,3.384,0,0,1,1.022.146,2.456,2.456,0,0,1,.831.436,2.037,2.037,0,0,1,.563.716,2.21,2.21,0,0,1,.211.992,2.121,2.121,0,0,1-.49,1.42,4.173,4.173,0,0,1-1.214.965l1.233,1.516a2.522,2.522,0,0,0,.23-.559,4.357,4.357,0,0,0,.119-.582h1.65a5.156,5.156,0,0,1-.295,1.248,4.206,4.206,0,0,1-.632,1.11l1.945,2.266Zm11.187-2.064a3.858,3.858,0,0,1-.884,1.233,3.807,3.807,0,0,1-1.286.777,4.759,4.759,0,0,1-1.62.268,4.947,4.947,0,0,1-1.979-.383,4.264,4.264,0,0,1-1.478-1.053,4.688,4.688,0,0,1-.927-1.574,5.782,5.782,0,0,1-.322-1.949,5.982,5.982,0,0,1,.322-1.991,4.775,4.775,0,0,1,.927-1.6,4.215,4.215,0,0,1,1.478-1.072,5.1,5.1,0,0,1,3.473-.161,4,4,0,0,1,1.26.662,3.591,3.591,0,0,1,.919,1.08,3.894,3.894,0,0,1,.456,1.474h-2.037a1.832,1.832,0,0,0-.241-.666,2.175,2.175,0,0,0-1.849-1.011,2.443,2.443,0,0,0-1.206.276,2.254,2.254,0,0,0-.8.735,3.258,3.258,0,0,0-.452,1.053,5.354,5.354,0,0,0-.138,1.221,4.953,4.953,0,0,0,.138,1.172,3.221,3.221,0,0,0,.452,1.026,2.233,2.233,0,0,0,.8.727,2.443,2.443,0,0,0,1.206.276,1.933,1.933,0,0,0,1.5-.59,2.719,2.719,0,0,0,.666-1.554h2.037A4.827,4.827,0,0,1,828.633,741.917Zm1.126-16.355a3.243,3.243,0,0,1-.724,1.145,3.145,3.145,0,0,1-1.133.731,4.113,4.113,0,0,1-1.478.253,4.063,4.063,0,0,1-1.474-.253,3.148,3.148,0,0,1-1.126-.731,3.242,3.242,0,0,1-.724-1.145,4.155,4.155,0,0,1-.257-1.5,4.2,4.2,0,0,1,.257-1.508,3.177,3.177,0,0,1,1.849-1.891,3.981,3.981,0,0,1,1.474-.26,4.031,4.031,0,0,1,1.478.26,3.163,3.163,0,0,1,1.857,1.891,4.286,4.286,0,0,1,.256,1.508A4.242,4.242,0,0,1,829.758,725.562Zm7.224,16.463a3.354,3.354,0,0,1-.724,1.145,3.213,3.213,0,0,1-1.133.731,4.149,4.149,0,0,1-1.482.253,4.077,4.077,0,0,1-1.474-.253,3.153,3.153,0,0,1-1.849-1.876,4.243,4.243,0,0,1-.253-1.5,4.285,4.285,0,0,1,.253-1.508,3.209,3.209,0,0,1,.724-1.152,3.29,3.29,0,0,1,1.126-.739,4,4,0,0,1,1.474-.26,4.068,4.068,0,0,1,1.482.26,3.163,3.163,0,0,1,1.857,1.891,4.281,4.281,0,0,1,.253,1.508A4.239,4.239,0,0,1,836.982,742.024Zm3.672,1.956h-2.106v-2.064h2.106Zm.521-16.463-1.9-3.1-.735.712v2.385h-1.9v-9.567h1.9v5.13l2.4-2.492h2.251l-2.611,2.546,2.906,4.384ZM834.976,739a1.5,1.5,0,0,0-.521-.505,1.6,1.6,0,0,0-.812-.191,1.451,1.451,0,0,0-1.321.7,2.117,2.117,0,0,0-.272.708,4.159,4.159,0,0,0-.08.819,4.017,4.017,0,0,0,.08.808,2.237,2.237,0,0,0,.272.712,1.473,1.473,0,0,0,.517.5,1.562,1.562,0,0,0,.8.188,1.6,1.6,0,0,0,.812-.188,1.423,1.423,0,0,0,.521-.5,2.153,2.153,0,0,0,.276-.712,4.017,4.017,0,0,0,.08-.808,4.159,4.159,0,0,0-.08-.819A2.041,2.041,0,0,0,834.976,739Zm-7.221-16.463a1.509,1.509,0,0,0-.524-.505,1.586,1.586,0,0,0-.808-.191,1.451,1.451,0,0,0-1.321.7,2.043,2.043,0,0,0-.276.708,4.159,4.159,0,0,0-.08.819,4.015,4.015,0,0,0,.08.808,2.157,2.157,0,0,0,.276.712,1.473,1.473,0,0,0,.517.5,1.562,1.562,0,0,0,.8.188,1.587,1.587,0,0,0,.808-.188,1.434,1.434,0,0,0,.524-.5,2.157,2.157,0,0,0,.276-.712,4.015,4.015,0,0,0,.08-.808,4.159,4.159,0,0,0-.08-.819A2.043,2.043,0,0,0,827.756,722.533Zm-14.223,17.481a1.9,1.9,0,0,0-.429.348,1.7,1.7,0,0,0-.3.44,1.235,1.235,0,0,0-.115.536,1.109,1.109,0,0,0,.115.49,1.262,1.262,0,0,0,.3.4,1.5,1.5,0,0,0,.433.268,1.41,1.41,0,0,0,.517.1,1.659,1.659,0,0,0,.892-.234,3.208,3.208,0,0,0,.716-.609l-1.635-2A3.791,3.791,0,0,0,813.533,740.014Zm1.057-2.159a3.767,3.767,0,0,0,.689-.547,1.117,1.117,0,0,0,.291-.819.888.888,0,0,0-.264-.643.814.814,0,0,0-.609-.268.871.871,0,0,0-.6.234.787.787,0,0,0-.257.613,1.261,1.261,0,0,0,.241.777C814.241,737.415,814.41,737.633,814.59,737.855Zm13.442-14.613a2.043,2.043,0,0,0-.276-.708,1.509,1.509,0,0,0-.524-.505,1.586,1.586,0,0,0-.808-.191,1.451,1.451,0,0,0-1.321.7,2.043,2.043,0,0,0-.276.708,4.159,4.159,0,0,0-.08.819,4.015,4.015,0,0,0,.08.808,2.157,2.157,0,0,0,.276.712,1.473,1.473,0,0,0,.517.5,1.562,1.562,0,0,0,.8.188,1.587,1.587,0,0,0,.808-.188,1.434,1.434,0,0,0,.524-.5,2.157,2.157,0,0,0,.276-.712,4.015,4.015,0,0,0,.08-.808A4.159,4.159,0,0,0,828.031,723.241Zm7.221,16.463a2.041,2.041,0,0,0-.276-.708,1.5,1.5,0,0,0-.521-.505,1.6,1.6,0,0,0-.812-.191,1.451,1.451,0,0,0-1.321.7,2.117,2.117,0,0,0-.272.708,4.159,4.159,0,0,0-.08.819,4.017,4.017,0,0,0,.08.808,2.237,2.237,0,0,0,.272.712,1.473,1.473,0,0,0,.517.5,1.562,1.562,0,0,0,.8.188,1.6,1.6,0,0,0,.812-.188,1.423,1.423,0,0,0,.521-.5,2.153,2.153,0,0,0,.276-.712,4.017,4.017,0,0,0,.08-.808A4.159,4.159,0,0,0,835.252,739.7Zm0,0a2.041,2.041,0,0,0-.276-.708,1.5,1.5,0,0,0-.521-.505,1.6,1.6,0,0,0-.812-.191,1.451,1.451,0,0,0-1.321.7,2.117,2.117,0,0,0-.272.708,4.159,4.159,0,0,0-.08.819,4.017,4.017,0,0,0,.08.808,2.237,2.237,0,0,0,.272.712,1.473,1.473,0,0,0,.517.5,1.562,1.562,0,0,0,.8.188,1.6,1.6,0,0,0,.812-.188,1.423,1.423,0,0,0,.521-.5,2.153,2.153,0,0,0,.276-.712,4.017,4.017,0,0,0,.08-.808A4.159,4.159,0,0,0,835.252,739.7Zm-7.221-16.463a2.043,2.043,0,0,0-.276-.708,1.509,1.509,0,0,0-.524-.505,1.586,1.586,0,0,0-.808-.191,1.451,1.451,0,0,0-1.321.7,2.043,2.043,0,0,0-.276.708,4.159,4.159,0,0,0-.08.819,4.015,4.015,0,0,0,.08.808,2.157,2.157,0,0,0,.276.712,1.473,1.473,0,0,0,.517.5,1.562,1.562,0,0,0,.8.188,1.587,1.587,0,0,0,.808-.188,1.434,1.434,0,0,0,.524-.5,2.157,2.157,0,0,0,.276-.712,4.015,4.015,0,0,0,.08-.808A4.159,4.159,0,0,0,828.031,723.241Zm0,0a2.043,2.043,0,0,0-.276-.708,1.509,1.509,0,0,0-.524-.505,1.586,1.586,0,0,0-.808-.191,1.451,1.451,0,0,0-1.321.7,2.043,2.043,0,0,0-.276.708,4.159,4.159,0,0,0-.08.819,4.015,4.015,0,0,0,.08.808,2.157,2.157,0,0,0,.276.712,1.473,1.473,0,0,0,.517.5,1.562,1.562,0,0,0,.8.188,1.587,1.587,0,0,0,.808-.188,1.434,1.434,0,0,0,.524-.5,2.157,2.157,0,0,0,.276-.712,4.015,4.015,0,0,0,.08-.808A4.159,4.159,0,0,0,828.031,723.241Zm0,0a2.043,2.043,0,0,0-.276-.708,1.509,1.509,0,0,0-.524-.505,1.586,1.586,0,0,0-.808-.191,1.451,1.451,0,0,0-1.321.7,2.043,2.043,0,0,0-.276.708,4.159,4.159,0,0,0-.08.819,4.015,4.015,0,0,0,.08.808,2.157,2.157,0,0,0,.276.712,1.473,1.473,0,0,0,.517.5,1.562,1.562,0,0,0,.8.188,1.587,1.587,0,0,0,.808-.188,1.434,1.434,0,0,0,.524-.5,2.157,2.157,0,0,0,.276-.712,4.015,4.015,0,0,0,.08-.808A4.159,4.159,0,0,0,828.031,723.241Zm0,0a2.043,2.043,0,0,0-.276-.708,1.509,1.509,0,0,0-.524-.505,1.586,1.586,0,0,0-.808-.191,1.451,1.451,0,0,0-1.321.7,2.043,2.043,0,0,0-.276.708,4.159,4.159,0,0,0-.08.819,4.015,4.015,0,0,0,.08.808,2.157,2.157,0,0,0,.276.712,1.473,1.473,0,0,0,.517.5,1.562,1.562,0,0,0,.8.188,1.587,1.587,0,0,0,.808-.188,1.434,1.434,0,0,0,.524-.5,2.157,2.157,0,0,0,.276-.712,4.015,4.015,0,0,0,.08-.808A4.159,4.159,0,0,0,828.031,723.241Zm0,0a2.043,2.043,0,0,0-.276-.708,1.509,1.509,0,0,0-.524-.505,1.586,1.586,0,0,0-.808-.191,1.451,1.451,0,0,0-1.321.7,2.043,2.043,0,0,0-.276.708,4.159,4.159,0,0,0-.08.819,4.015,4.015,0,0,0,.08.808,2.157,2.157,0,0,0,.276.712,1.473,1.473,0,0,0,.517.5,1.562,1.562,0,0,0,.8.188,1.587,1.587,0,0,0,.808-.188,1.434,1.434,0,0,0,.524-.5,2.157,2.157,0,0,0,.276-.712,4.015,4.015,0,0,0,.08-.808A4.159,4.159,0,0,0,828.031,723.241Z" transform="translate(-802.411 -709.141)"/></svg>